<svg width="44" height="44" viewBox="0 0 44 44" fill="none" xmlns="http://www.w3.org/2000/svg"><g id="upload 1"><g id="Group 550"><g id="document-upload/bulk"><g id="vuesax/bulk/document-upload"><g id="document-upload"><path id="Vector" opacity="0.4" d="M37.583 18.682H32.283C30.1937 18.6775 28.1912 17.8455 26.7138 16.3682C25.2365 14.8908 24.4045 12.8883 24.4 10.799V5.49899C24.3982 5.01368 24.2046 4.54878 23.8614 4.20561C23.5182 3.86244 23.0533 3.66884 22.568 3.66699H14.795C9.14801 3.66699 4.58301 7.33399 4.58301 13.879V30.122C4.58301 36.667 9.14801 40.334 14.795 40.334H29.205C34.852 40.334 39.417 36.667 39.417 30.122V20.515C39.4154 20.0292 39.2217 19.5637 38.878 19.2203C38.5344 18.8768 38.0688 18.6833 37.583 18.682V18.682Z" fill="#206467"/><path id="Vector_2" d="M28.966 4.05099C28.801 3.88395 28.5905 3.76901 28.3608 3.72042C28.131 3.67184 27.892 3.69173 27.6735 3.77764C27.4549 3.86355 27.2664 4.01171 27.1312 4.20374C26.996 4.39578 26.9202 4.62326 26.913 4.85799V11.258C26.9393 12.574 27.4834 13.8265 28.4273 14.7438C29.3713 15.6612 30.6388 16.1693 31.955 16.158C33.697 16.176 36.117 16.176 38.188 16.176C38.4181 16.1827 38.645 16.1206 38.8396 15.9976C39.0342 15.8745 39.1876 15.6962 39.2802 15.4855C39.3728 15.2747 39.4004 15.0411 39.3593 14.8146C39.3183 14.588 39.2106 14.3789 39.05 14.214C36.413 11.55 31.68 6.76499 28.966 4.05099Z" fill="#206467"/><path id="translate" style="transform-origin: center; transform-box: fill-box; animation: translateY 1s linear infinite;" d="M21.138 22.862L17.472 19.192C17.453 19.177 17.435 19.177 17.435 19.159C17.3168 19.0471 17.1818 18.9543 17.035 18.884H16.995C16.8525 18.8359 16.7048 18.805 16.555 18.792H16.408C16.29 18.799 16.1737 18.8236 16.063 18.865C16.019 18.88 15.9762 18.8984 15.935 18.92C15.7845 18.9838 15.6485 19.0773 15.535 19.195L11.863 22.862C11.6161 23.1217 11.4804 23.4676 11.4848 23.8259C11.4893 24.1842 11.6336 24.5266 11.8869 24.7801C12.1403 25.0335 12.4826 25.178 12.8409 25.1827C13.1992 25.1873 13.5452 25.0518 13.805 24.805L15.125 23.485V31.167C15.125 31.5317 15.2699 31.8814 15.5277 32.1393C15.7856 32.3971 16.1353 32.542 16.5 32.542C16.8647 32.542 17.2144 32.3971 17.4723 32.1393C17.7301 31.8814 17.875 31.5317 17.875 31.167V23.485L19.195 24.805C19.3225 24.9328 19.4739 25.0342 19.6406 25.1034C19.8073 25.1726 19.986 25.2082 20.1665 25.2082C20.347 25.2082 20.5257 25.1726 20.6924 25.1034C20.8591 25.0342 21.0106 24.9328 21.138 24.805C21.3935 24.5462 21.5367 24.1971 21.5367 23.8335C21.5367 23.4698 21.3935 23.1208 21.138 22.862V22.862Z" fill="#206467"/></g></g></g></g></g><style> @keyframes translateY { 0%, 100% { transform: translateY(2px); } 50% { transform: translateY(-2px); } }</style></svg>