<svg xmlns="http://www.w3.org/2000/svg" width="132.39" height="119.84" viewBox="0 0 132.39 119.84">
  <g id="Group_554" data-name="Group 554" transform="translate(-1162.685 -30)">
    <g id="Logo">
      <g id="Icon" transform="translate(502.498 -341)">
        <rect id="Rectangle_1" data-name="Rectangle 1" width="14" height="46" transform="translate(736.252 371)" fill="#fff"/>
        <rect id="Rectangle_4" data-name="Rectangle 4" width="14" height="46" transform="translate(706.768 371)" fill="#fff"/>
        <rect id="Rectangle_2" data-name="Rectangle 2" width="14" height="46" transform="translate(751.502 400)" fill="#fff"/>
        <rect id="Rectangle_3" data-name="Rectangle 3" width="14" height="46" transform="translate(721.002 400)" fill="#fff"/>
        <rect id="Rectangle_5" data-name="Rectangle 5" width="15" height="46" transform="translate(690.502 400)" fill="#fff"/>
      </g>
    </g>
    <path id="Path_176" data-name="Path 176" d="M-56.625-13.86l-2.64-3.03,3.42-2.79,1.89,2.19,2.58-2.1,2.58,3.03-3.36,2.79-1.92-2.22Zm13.29.6V0H-57.8q-4.14,0-6.33-2a7.417,7.417,0,0,1-2.19-5.775,12.54,12.54,0,0,1,.72-3.93l3.09-.66.3.3a13.85,13.85,0,0,0-.48,3.27A3.554,3.554,0,0,0-61.41-5.775q1.275.975,4.4.975h9.48v-8.46ZM-35.235,0h-4.2V-22.5h4.2Zm10.77-12.36V-1.62a10.179,10.179,0,0,1-1.68,6.21A5.79,5.79,0,0,1-31.1,6.84a6.911,6.911,0,0,1-2.64-.57l-.78-4.05.27-.24a12.185,12.185,0,0,0,3.12.42q2.52,0,2.52-3.24V-12.36ZM-14-4.44V-.33l-.3.33h-6.72V-22.5h4.2V-4.8h2.52Zm25.74-.03V-.3l-.3.3h-.3A3.344,3.344,0,0,1,9.21-.525,10.672,10.672,0,0,1,7.425-2.19L6.015,0a14.7,14.7,0,0,1-7.29-2.16L-2.865,0a8.276,8.276,0,0,1-5.22-1.98L-8.355,0H-14.3l-.3-.3V-4.5l.3-.3h2.49l.96-7.26h4.11l-.87,6.39a8.546,8.546,0,0,0,3.54.84l.87-7.23H.855L.1-5.46a18.129,18.129,0,0,0,4.65.66q-.54-4.2-1.2-7.74l4.14-.9q.75,4.02,1.23,8.01a3.828,3.828,0,0,0,2.34.63h.18Zm9.57-8.79a4.147,4.147,0,0,1,3.465,1.935A7.865,7.865,0,0,1,26.175-6.6a10.419,10.419,0,0,1-.99,4.38l-3,2.97-6.6-2.82a5.615,5.615,0,0,1-1.8,1.635A4.958,4.958,0,0,1,11.565,0h-.12l-.3-.39V-4.2l.3-.6h.45a1.707,1.707,0,0,0,1.275-.735A24.842,24.842,0,0,0,14.985-8.25a16.174,16.174,0,0,1,2.985-3.69A4.977,4.977,0,0,1,21.315-13.26Zm-.9,4.74a1.672,1.672,0,0,0-1.245.66,13.653,13.653,0,0,0-1.515,2.4l4.38,1.89a6.66,6.66,0,0,0,.39-2.22,3.089,3.089,0,0,0-.6-1.965A1.757,1.757,0,0,0,20.415-8.52Zm22.08-3.84V-1.62a10.179,10.179,0,0,1-1.68,6.21,5.79,5.79,0,0,1-4.95,2.25,6.911,6.911,0,0,1-2.64-.57l-.78-4.05.27-.24a12.185,12.185,0,0,0,3.12.42q2.52,0,2.52-3.24V-12.36ZM50.145,0h-4.2V-22.5h4.2Zm9.27-15.66h.42q5.1,6.18,6.24,11.28L63.735,0h-9.9l-1.02-4.5.27-.3h8.85a20.484,20.484,0,0,0-1.59-2.64q-1.02-1.47-1.74-2.37t-2.31-2.82Z" transform="translate(1229 143)" fill="#fff"/>
  </g>
</svg>
