<svg width="28" height="28" viewBox="0 0 28 28" fill="none" xmlns="http://www.w3.org/2000/svg">
<g clip-path="url(#clip0_441_242)">
<path d="M13.9999 0C11.231 0 8.52425 0.821086 6.22196 2.35943C3.91967 3.89777 2.12526 6.08427 1.06563 8.64243C0.00600505 11.2006 -0.271242 14.0155 0.268951 16.7313C0.809144 19.447 2.14251 21.9416 4.10045 23.8995C6.05838 25.8574 8.55295 27.1908 11.2687 27.731C13.9844 28.2712 16.7993 27.9939 19.3575 26.9343C21.9157 25.8747 24.1022 24.0803 25.6405 21.778C27.1789 19.4757 27.9999 16.7689 27.9999 14C27.9957 10.2883 26.5194 6.72977 23.8948 4.10518C21.2702 1.48059 17.7117 0.00423472 13.9999 0V0ZM17.4819 14.493H15.1999L15.1999 22.611L11.8289 22.611L11.8289 14.493H10.2289V11.624H11.8289V9.768C11.7926 9.31149 11.8558 8.85253 12.0141 8.42282C12.1725 7.9931 12.4222 7.60286 12.746 7.27904C13.0698 6.95522 13.46 6.70553 13.8898 6.5472C14.3195 6.38887 14.7784 6.32569 15.2349 6.362L17.7349 6.372V9.156H15.9209C15.8197 9.15073 15.7186 9.16791 15.6249 9.20632C15.5311 9.24472 15.447 9.3034 15.3785 9.37814C15.3101 9.45288 15.259 9.54184 15.229 9.63863C15.199 9.73542 15.1908 9.83765 15.2049 9.938V11.624H17.7759L17.4819 14.493Z" fill="black"/>
</g>
<defs>
<clipPath id="clip0_441_242">
<rect width="28" height="28" fill="white" transform="translate(27.9999) rotate(90)"/>
</clipPath>
</defs>
</svg>
