<svg width="877" height="631" viewBox="0 0 877 631" fill="none" xmlns="http://www.w3.org/2000/svg"><g id="Group 492 1" clip-path="url(#clip0_437_16)"><g id="Group 492"><g id="Group 415"><g id="Group 414"><g id="Group 413"><g id="Group 410" style="mix-blend-mode:screen" opacity="0.8"><path id="Path 21" style="mix-blend-mode:screen" d="M489.403 630.782H180.336L295.417 436.627H374.317L489.403 630.782Z" fill="url(#paint0_linear_437_16)"/></g><g id="Group 411" style="mix-blend-mode:screen" opacity="0.8"><path id="Path 22" style="mix-blend-mode:screen" d="M84.666 630.782H-153.961L161.902 436.627H240.802L84.666 630.782Z" fill="url(#paint1_linear_437_16)"/></g><g id="Group 412" style="mix-blend-mode:screen" opacity="0.8"><path id="Path 23" style="mix-blend-mode:screen" d="M823.699 630.782H591.379L428.931 436.627H507.831L823.699 630.782Z" fill="url(#paint2_linear_437_16)"/></g><path id="Path 24" style="mix-blend-mode:screen transform-origin: center; transform-box: fill-box; animation: translateX 3s linear infinite;" opacity="0.8" d="M277.694 316.531L201.355 201.471L125.015 316.531H161.904V436.631H240.804L240.792 316.531H277.694Z" fill="url(#paint3_linear_437_16)"/><path id="Path 25" style="mix-blend-mode:screen transform-origin: center; transform-box: fill-box; animation: translateY 3s linear infinite;" opacity="0.8" d="M411.213 190.375L334.869 75.315L258.53 190.375H295.419V436.625H374.319L374.306 190.375H411.213Z" fill="url(#paint4_linear_437_16)"/><path id="Path 26" style="mix-blend-mode:screen transform-origin: center; transform-box: fill-box; animation: translateX 3s linear infinite;" opacity="0.8" d="M544.724 316.531L468.384 201.471L392.045 316.531H428.934V436.631H507.834L507.821 316.537L544.724 316.531Z" fill="url(#paint5_linear_437_16)"/></g></g></g><g id="Group 491"><g id="Path 39" style="mix-blend-mode:multiply"><path d="M480.417 481.814C480.417 481.108 484.492 480.535 489.517 480.535C494.542 480.535 498.617 481.108 498.617 481.814C498.617 482.52 494.542 483.093 489.517 483.093C484.492 483.093 480.417 482.52 480.417 481.814Z" fill="#E6E7E8"/></g><g id="Ellipse 4" style="mix-blend-mode:multiply"><path d="M310.068 458.068C315.094 458.068 319.169 457.495 319.169 456.789C319.169 456.083 315.094 455.51 310.068 455.51C305.042 455.51 300.967 456.083 300.967 456.789C300.967 457.495 305.042 458.068 310.068 458.068Z" fill="#E6E7E8"/></g><g id="Path 40" style="mix-blend-mode:multiply"><path d="M59.74 561.844C59.74 561.138 63.815 560.566 68.84 560.566C73.865 560.566 77.94 561.138 77.94 561.844C77.94 562.55 73.865 563.123 68.84 563.123C63.815 563.123 59.74 562.551 59.74 561.844Z" fill="#E6E7E8"/></g><g id="Path 41" style="mix-blend-mode:multiply"><path d="M147.914 496.061C147.914 495.355 151.989 494.782 157.014 494.782C162.039 494.782 166.114 495.355 166.114 496.061C166.114 496.767 162.039 497.34 157.014 497.34C151.989 497.34 147.914 496.767 147.914 496.061Z" fill="#E6E7E8"/></g><g id="Path 170" style="mix-blend-mode:multiply"><path d="M259.59 459.346C259.59 458.64 263.665 458.067 268.69 458.067C273.715 458.067 277.79 458.64 277.79 459.346C277.79 460.052 273.715 460.625 268.69 460.625C263.665 460.625 259.59 460.052 259.59 459.346Z" fill="#E6E7E8"/></g><g id="Path 169" style="mix-blend-mode:multiply"><path d="M564.462 546.061C564.462 545.355 568.537 544.782 573.562 544.782C578.587 544.782 582.662 545.355 582.662 546.061C582.662 546.767 578.587 547.34 573.562 547.34C568.537 547.34 564.462 546.767 564.462 546.061Z" fill="#E6E7E8"/></g><g id="translate_6" style="transform-origin: center; transform-box: fill-box; animation: translateY 2s linear infinite;"><g id="Group 432"><g id="Group 431"><path id="Rectangle 97" d="M490.197 378.051H488.843V480.535H490.197V378.051Z" fill="url(#paint6_linear_437_16)"/></g></g><g id="Group 435"><path id="Ellipse 6" d="M533.64 342.745C537.93 318.377 521.653 295.146 497.286 290.856C472.918 286.566 449.687 302.843 445.397 327.21C441.107 351.578 457.384 374.809 481.752 379.099C506.119 383.389 529.351 367.112 533.64 342.745Z" fill="#33A5A9"/><path id="Path 62" d="M523.552 338.905C523.552 347.931 519.966 356.588 513.584 362.971C507.201 369.353 498.544 372.939 489.518 372.939C480.492 372.939 471.835 369.353 465.452 362.971C459.07 356.588 455.484 347.931 455.484 338.905C455.484 338.25 455.499 337.594 455.542 336.938C456.042 345.61 459.84 353.763 466.157 359.725C472.473 365.688 480.831 369.01 489.517 369.01C498.204 369.01 506.562 365.688 512.878 359.725C519.195 353.763 522.993 345.61 523.493 336.938C523.538 337.594 523.552 338.25 523.552 338.905Z" fill="#10C8BD"/><path id="Ellipse 7" d="M489.519 369.005C508.283 369.005 523.494 354.648 523.494 336.938C523.494 319.228 508.283 304.871 489.519 304.871C470.755 304.871 455.544 319.228 455.544 336.938C455.544 354.648 470.755 369.005 489.519 369.005Z" fill="#1D8E87"/><path id="Path 63" d="M523.552 334.972C523.552 335.802 523.523 336.618 523.452 337.419C522.839 328.838 518.998 320.809 512.702 314.947C506.406 309.085 498.123 305.825 489.521 305.825C480.918 305.825 472.635 309.085 466.339 314.947C460.043 320.809 456.202 328.838 455.589 337.419C455.516 336.619 455.489 335.802 455.489 334.972C455.489 325.946 459.075 317.289 465.457 310.906C471.84 304.524 480.497 300.938 489.523 300.938C498.549 300.938 507.206 304.524 513.589 310.906C519.971 317.289 523.557 325.946 523.557 334.972H523.552Z" fill="#206467"/><g id="Group 434"><g id="Group 433"><path id="Path 64" d="M488.125 351.814V347.668C485.906 347.661 483.733 347.036 481.849 345.863L482.833 343.114C484.592 344.256 486.642 344.868 488.739 344.877C491.652 344.877 493.621 343.195 493.621 340.858C493.621 338.602 492.021 337.207 488.985 335.976C484.802 334.336 482.219 332.449 482.219 328.876C482.219 325.471 484.639 322.887 488.413 322.276V318.135H490.955V322.113C492.827 322.128 494.663 322.622 496.289 323.549L495.262 326.256C493.7 325.326 491.913 324.843 490.095 324.862C486.935 324.862 485.746 326.749 485.746 328.389C485.746 330.521 487.264 331.589 490.833 333.065C495.058 334.788 497.19 336.921 497.19 340.571C497.19 343.812 494.934 346.847 490.709 347.545V351.81L488.125 351.814Z" fill="#8ED6D8"/></g></g></g><g id="Group 438"><path id="Path 65" d="M489.387 421.475C489.387 421.475 501.411 384.567 533.051 395.875C549.122 401.612 489.387 421.475 489.387 421.475Z" fill="url(#paint7_linear_437_16)"/><path id="Path 66" d="M489.395 421.479C489.395 421.479 472.751 378.207 447.089 378.207C420.638 378.203 489.395 421.479 489.395 421.479Z" fill="url(#paint8_linear_437_16)"/><g id="Group 436"><path id="Path 67" d="M486.334 417.99C479.867 412.676 474.074 406.593 469.081 399.875C467.817 398.233 466.624 396.544 465.481 394.825C464.374 393.164 463.318 391.118 461.218 390.141C459.189 389.309 457.054 388.763 454.875 388.518C452.775 388.173 450.566 387.685 449.001 386.218C450.458 387.783 452.695 388.433 454.79 388.904C456.908 389.19 458.977 389.762 460.941 390.604C462.847 391.536 463.757 393.404 464.87 395.167C465.983 396.93 467.137 398.652 468.379 400.33C470.931 403.66 473.703 406.815 476.679 409.773C479.665 412.773 482.895 415.522 486.334 417.99Z" fill="#206467"/><path id="Path 68" d="M453.452 394.026C455.182 393.839 456.903 393.611 458.613 393.333C459.485 393.216 460.35 393.053 461.205 392.843C462.016 392.636 463.205 392.015 463.162 390.843C462.963 389.993 462.625 389.182 462.162 388.443C461.778 387.706 461.357 386.989 460.9 386.295C459.99 384.892 458.952 383.575 457.8 382.362C458.7 383.754 459.537 385.167 460.328 386.595C461.14 387.946 461.805 389.381 462.313 390.873C462.385 391.462 461.734 391.913 460.966 392.15C460.198 392.387 459.31 392.506 458.484 392.73C456.793 393.118 455.118 393.552 453.452 394.026Z" fill="#206467"/><path id="Path 69" d="M466.486 401.964C467.386 402.625 468.304 403.252 469.253 403.833C469.73 404.148 470.227 404.431 470.741 404.68C471.06 404.867 471.43 404.949 471.799 404.915C472.167 404.88 472.516 404.731 472.795 404.488C473.309 403.486 473.659 402.408 473.831 401.295C474.029 400.24 474.108 399.167 474.065 398.095C473.791 399.132 473.496 400.149 473.19 401.155C472.932 402.127 472.58 403.071 472.139 403.975C471.748 404.518 470.53 403.753 469.584 403.304C468.576 402.812 467.541 402.373 466.486 401.964Z" fill="#206467"/></g><g id="Group 437"><path id="Path 70" d="M491.417 418.844C498.204 417.182 504.232 413.195 509.967 409.187C515.683 405.081 521.283 400.825 527.526 397.669C520.991 400.169 515.25 404.469 509.514 408.469C503.819 412.563 497.983 416.504 491.417 418.844Z" fill="#206467"/><path id="Path 71" d="M518.458 393.72C517.736 395.329 517.052 396.954 516.419 398.598C516.082 399.412 515.799 400.247 515.491 401.073C515.095 401.929 514.85 402.847 514.768 403.786C514.819 404.315 515.071 404.805 515.473 405.154C515.874 405.503 516.394 405.685 516.925 405.663C517.782 405.622 518.635 405.529 519.481 405.387C521.141 405.16 522.798 404.877 524.451 404.549C522.769 404.559 521.09 404.614 519.416 404.726C518.604 404.74 517.685 404.896 516.966 404.878C516.211 404.834 515.577 404.41 515.58 403.732C515.654 402.91 515.856 402.106 516.18 401.347C516.454 400.508 516.753 399.679 516.998 398.829C517.536 397.143 518.016 395.436 518.458 393.72Z" fill="#206467"/><path id="Path 72" d="M508.909 404.298C508.368 405.389 507.866 406.498 507.414 407.622C507.167 408.178 506.975 408.754 506.758 409.322C506.473 409.926 506.298 410.576 506.241 411.241C506.279 411.636 506.466 412.002 506.764 412.263C507.063 412.525 507.45 412.662 507.847 412.647C508.443 412.619 509.037 412.549 509.624 412.438C510.766 412.264 511.903 412.038 513.037 411.758C511.874 411.715 510.714 411.718 509.559 411.777C509.005 411.77 508.346 411.883 507.888 411.862C507.388 411.819 507.045 411.562 507.053 411.186C507.292 410.055 507.608 408.941 507.998 407.853C508.349 406.682 508.649 405.499 508.909 404.298Z" fill="#206467"/></g></g><g id="Group 441"><path id="Path 73" d="M489.297 451.048C489.297 451.048 489.22 434.413 503.615 434.748C510.924 434.924 489.297 451.048 489.297 451.048Z" fill="url(#paint9_linear_437_16)"/><path id="Path 74" d="M489.297 451.049C489.297 451.049 476.697 435.684 466.257 439.139C455.497 442.7 489.297 451.049 489.297 451.049Z" fill="url(#paint10_linear_437_16)"/><g id="Group 439"><path id="Path 75" d="M487.584 450.042C484.238 448.751 481.062 447.056 478.126 444.995C477.391 444.495 476.677 443.971 475.982 443.425C475.335 442.767 474.515 442.306 473.617 442.094C472.679 442.029 471.737 442.094 470.817 442.288C469.922 442.507 468.983 442.456 468.117 442.142C468.972 442.513 469.917 442.622 470.834 442.455C471.735 442.287 472.654 442.241 473.567 442.32C474.415 442.544 475.183 443.004 475.78 443.647C476.467 444.212 477.172 444.76 477.903 445.275C479.39 446.286 480.943 447.196 482.552 447.999C484.17 448.817 485.853 449.501 487.584 450.042V450.042Z" fill="#206467"/><path id="Path 76" d="M470.979 444.72C471.658 444.41 472.328 444.087 472.986 443.743C473.325 443.578 473.655 443.395 473.974 443.195C474.274 443.002 474.674 442.589 474.501 442.118C474.305 441.8 474.058 441.516 473.77 441.278C473.515 441.031 473.248 440.798 472.97 440.578C472.41 440.13 471.81 439.734 471.178 439.396C471.731 439.841 472.262 440.304 472.778 440.778C473.29 441.218 473.754 441.712 474.162 442.251C474.27 442.481 474.062 442.751 473.786 442.951C473.51 443.151 473.16 443.318 472.855 443.521C472.215 443.9 471.592 444.302 470.979 444.72Z" fill="#206467"/><path id="Path 77" d="M477.35 446.194C477.804 446.342 478.263 446.473 478.727 446.582C478.963 446.646 479.203 446.694 479.446 446.726C479.601 446.759 479.763 446.743 479.908 446.679C480.054 446.615 480.175 446.508 480.256 446.371C480.33 445.894 480.327 445.408 480.247 444.932C480.186 444.476 480.074 444.029 479.912 443.599C479.94 444.057 479.957 444.511 479.968 444.962C479.994 445.392 479.978 445.824 479.92 446.251C479.834 446.525 479.235 446.377 478.79 446.322C478.316 446.26 477.835 446.219 477.35 446.194Z" fill="#206467"/></g><g id="Group 440"><path id="Path 78" d="M489.767 449.706C492.226 447.965 494.344 445.787 496.014 443.279C497.694 440.788 499.564 438.43 501.608 436.228C499.382 438.256 497.409 440.546 495.734 443.048C494.067 445.536 492.058 447.777 489.767 449.706Z" fill="#206467"/><path id="Path 79" d="M497.386 435.842C497.309 436.594 497.25 437.342 497.214 438.101C497.186 438.478 497.184 438.856 497.17 439.233C497.124 439.634 497.148 440.04 497.241 440.433C497.333 440.641 497.502 440.806 497.712 440.894C497.922 440.982 498.158 440.987 498.371 440.906C498.713 440.774 499.047 440.621 499.371 440.449C500.016 440.133 500.653 439.796 501.28 439.439C500.597 439.67 499.921 439.918 499.255 440.189C498.926 440.304 498.573 440.489 498.279 440.58C498.146 440.636 497.997 440.639 497.863 440.586C497.729 440.534 497.62 440.431 497.561 440.3C497.481 439.955 497.456 439.6 497.486 439.248C497.486 438.87 497.495 438.492 497.48 438.113C497.472 437.359 497.438 436.601 497.386 435.842Z" fill="#206467"/><path id="Path 80" d="M494.926 441.427C494.853 441.944 494.798 442.462 494.765 442.981C494.739 443.24 494.739 443.501 494.727 443.76C494.692 444.044 494.709 444.332 494.775 444.61C494.844 444.766 494.969 444.89 495.126 444.956C495.282 445.022 495.459 445.026 495.618 444.966C495.857 444.874 496.089 444.766 496.313 444.642C496.754 444.417 497.188 444.172 497.613 443.906C497.134 444.045 496.664 444.203 496.201 444.382C495.975 444.453 495.722 444.588 495.533 444.642C495.323 444.692 495.15 444.635 495.102 444.48C495.047 443.988 495.026 443.492 495.038 442.997C495.019 442.479 494.981 441.956 494.926 441.427Z" fill="#206467"/></g></g></g><g id="translate_1" style="transform-origin: center; transform-box: fill-box; animation: translateX 2s linear infinite;"><g id="Group 432_2"><g id="Group 431_2"><path id="Rectangle 97_2" d="M380.678 492.825H379.793V559.782H380.678V492.825Z" fill="url(#paint11_linear_437_16)"/></g></g><g id="Group 435_2"><path id="Ellipse 6_2" d="M409.062 469.758C411.865 453.837 401.231 438.659 385.31 435.856C369.389 433.054 354.211 443.688 351.409 459.608C348.606 475.529 359.24 490.707 375.161 493.51C391.081 496.312 406.259 485.678 409.062 469.758Z" fill="#33A5A9"/><path id="Path 62_2" d="M402.471 467.249C402.491 470.182 401.93 473.089 400.821 475.804C399.713 478.519 398.078 480.988 396.011 483.069C393.945 485.149 391.487 486.8 388.779 487.927C386.072 489.054 383.168 489.634 380.235 489.634C377.303 489.634 374.399 489.054 371.692 487.927C368.984 486.8 366.526 485.149 364.46 483.069C362.393 480.988 360.758 478.519 359.65 475.804C358.541 473.089 357.98 470.182 358 467.249C358 466.821 358.01 466.392 358.038 465.964C358.367 471.628 360.85 476.952 364.976 480.846C369.103 484.739 374.562 486.908 380.235 486.908C385.909 486.908 391.368 484.739 395.495 480.846C399.622 476.952 402.104 471.628 402.433 465.964C402.462 466.392 402.471 466.821 402.471 467.249Z" fill="#10C8BD"/><path id="Ellipse 7_2" d="M380.235 486.916C392.494 486.916 402.432 477.536 402.432 465.965C402.432 454.394 392.494 445.014 380.235 445.014C367.976 445.014 358.038 454.394 358.038 465.965C358.038 477.536 367.976 486.916 380.235 486.916Z" fill="#1D8E87"/><path id="Path 63_2" d="M402.471 464.68C402.471 465.222 402.452 465.755 402.404 466.28C402.005 460.673 399.496 455.425 395.383 451.593C391.269 447.762 385.856 445.632 380.235 445.632C374.614 445.632 369.201 447.762 365.087 451.593C360.974 455.425 358.465 460.673 358.066 466.28C358.018 465.756 357.999 465.223 357.999 464.68C357.979 461.747 358.54 458.84 359.649 456.125C360.757 453.41 362.392 450.941 364.459 448.86C366.525 446.78 368.983 445.129 371.691 444.002C374.398 442.875 377.302 442.295 380.235 442.295C383.167 442.295 386.071 442.875 388.778 444.002C391.486 445.129 393.944 446.78 396.01 448.86C398.077 450.941 399.712 453.41 400.82 456.125C401.929 458.84 402.49 461.747 402.47 464.68H402.471Z" fill="#206467"/><g id="Group 434_2"><g id="Group 433_2"><path id="Path 64_2" d="M379.324 475.684V472.978C377.874 472.974 376.455 472.565 375.224 471.799L375.867 469.999C377.016 470.745 378.356 471.145 379.726 471.151C381.626 471.151 382.915 470.051 382.915 468.525C382.915 467.051 381.87 466.14 379.886 465.336C377.153 464.265 375.465 463.036 375.465 460.7C375.465 458.475 377.046 456.788 379.512 456.385V453.679H381.173V456.279C382.396 456.289 383.596 456.612 384.658 457.217L383.987 458.986C382.967 458.378 381.799 458.063 380.611 458.075C378.547 458.075 377.77 459.308 377.77 460.375C377.77 461.768 378.762 462.465 381.093 463.43C383.853 464.556 385.247 465.949 385.247 468.33C385.226 469.477 384.782 470.577 384.001 471.417C383.22 472.258 382.156 472.781 381.013 472.886V475.672L379.324 475.684Z" fill="#8ED6D8"/></g></g></g><g id="Group 438_2"><path id="Path 65_2" d="M380.147 521.195C380.147 521.195 388.003 497.082 408.674 504.468C419.176 508.218 380.147 521.195 380.147 521.195Z" fill="url(#paint12_linear_437_16)"/><path id="Path 66_2" d="M380.151 521.2C380.151 521.2 369.277 492.928 352.511 492.928C335.232 492.924 380.151 521.2 380.151 521.2Z" fill="url(#paint13_linear_437_16)"/><g id="Group 436_2"><path id="Path 67_2" d="M378.153 518.918C373.928 515.446 370.143 511.472 366.881 507.083C366.055 506.01 365.276 504.907 364.53 503.783C363.807 502.698 363.117 501.361 361.745 500.723C360.419 500.18 359.025 499.823 357.601 499.663C356.202 499.552 354.867 499.03 353.764 498.163C354.824 499.109 356.14 499.72 357.546 499.918C358.93 500.105 360.282 500.48 361.565 501.031C362.81 501.64 363.405 502.863 364.132 504.012C364.859 505.161 365.613 506.289 366.424 507.385C368.091 509.561 369.904 511.623 371.848 513.555C373.798 515.513 375.907 517.307 378.153 518.918V518.918Z" fill="#206467"/><path id="Path 68_2" d="M356.67 503.258C357.8 503.135 358.925 502.987 360.042 502.805C360.612 502.729 361.177 502.622 361.735 502.485C362.265 502.35 363.042 501.944 363.013 501.18C362.882 500.626 362.661 500.096 362.358 499.614C362.107 499.134 361.831 498.667 361.533 498.214C360.938 497.297 360.26 496.437 359.507 495.644C360.094 496.554 360.642 497.477 361.159 498.409C361.691 499.293 362.126 500.232 362.459 501.209C362.506 501.594 362.081 501.889 361.579 502.043C361.077 502.197 360.497 502.275 359.957 502.422C358.853 502.668 357.758 502.952 356.67 503.258Z" fill="#206467"/><path id="Path 69_2" d="M365.186 508.447C365.773 508.879 366.374 509.288 366.994 509.668C367.305 509.874 367.63 510.059 367.966 510.222C368.175 510.344 368.417 510.398 368.657 510.375C368.898 510.352 369.126 510.255 369.308 510.096C369.644 509.442 369.873 508.737 369.985 508.01C370.114 507.322 370.166 506.621 370.138 505.921C369.959 506.598 369.766 507.263 369.566 507.921C369.397 508.556 369.168 509.173 368.88 509.763C368.625 510.118 367.829 509.618 367.211 509.324C366.55 509.005 365.874 508.715 365.186 508.447Z" fill="#206467"/></g><g id="Group 437_2"><path id="Path 70_2" d="M381.475 519.477C385.91 518.391 389.848 515.786 393.594 513.168C397.218 510.367 401.054 507.852 405.066 505.643C400.796 507.279 397.046 510.083 393.298 512.699C389.578 515.373 385.765 517.948 381.475 519.477Z" fill="#206467"/><path id="Path 71_2" d="M399.142 503.062C398.67 504.113 398.223 505.175 397.81 506.249C397.59 506.781 397.41 507.327 397.204 507.866C396.945 508.425 396.785 509.024 396.731 509.638C396.765 509.984 396.93 510.304 397.192 510.532C397.454 510.76 397.794 510.879 398.141 510.864C398.701 510.837 399.258 510.777 399.811 510.684C400.896 510.536 401.978 510.351 403.058 510.137C401.958 510.143 400.858 510.179 399.768 510.252C399.237 510.261 398.637 510.363 398.168 510.352C397.675 510.323 397.26 510.046 397.263 509.603C397.314 509.066 397.449 508.54 397.663 508.045C397.842 507.497 398.038 506.956 398.198 506.4C398.54 505.299 398.858 504.185 399.142 503.062Z" fill="#206467"/><path id="Path 72_2" d="M392.904 509.973C392.551 510.686 392.222 511.409 391.927 512.145C391.766 512.508 391.64 512.885 391.498 513.254C391.312 513.649 391.197 514.073 391.16 514.508C391.184 514.766 391.307 515.005 391.502 515.176C391.697 515.347 391.95 515.437 392.209 515.427C392.599 515.408 392.987 515.363 393.37 515.29C394.116 515.176 394.859 515.026 395.6 514.846C394.84 514.818 394.083 514.82 393.328 514.858C392.966 514.858 392.535 514.927 392.236 514.914C391.908 514.886 391.685 514.721 391.691 514.473C391.847 513.734 392.053 513.007 392.308 512.296C392.538 511.533 392.733 510.757 392.904 509.973Z" fill="#206467"/></g></g><g id="Group 441_2"><path id="Path 73_2" d="M380.09 540.518C380.09 540.518 380.039 529.65 389.444 529.871C394.224 529.983 380.09 540.518 380.09 540.518Z" fill="url(#paint14_linear_437_16)"/><path id="Path 74_2" d="M380.09 540.518C380.09 540.518 371.859 530.479 365.037 532.737C358.007 535.063 380.09 540.518 380.09 540.518Z" fill="url(#paint15_linear_437_16)"/><g id="Group 439_2"><path id="Path 75_2" d="M378.97 539.859C376.783 539.015 374.708 537.906 372.79 536.559C372.31 536.234 371.844 535.89 371.39 535.533C370.967 535.103 370.432 534.802 369.845 534.663C369.233 534.62 368.617 534.663 368.016 534.789C367.431 534.931 366.817 534.896 366.252 534.689C366.811 534.93 367.429 534.999 368.027 534.889C368.615 534.779 369.216 534.75 369.812 534.801C370.366 534.947 370.868 535.248 371.258 535.668C371.707 536.037 372.167 536.395 372.645 536.732C373.616 537.393 374.631 537.988 375.682 538.512C376.739 539.051 377.839 539.502 378.97 539.859V539.859Z" fill="#206467"/><path id="Path 76_2" d="M368.123 536.382C368.567 536.182 369.004 535.968 369.434 535.744C369.656 535.636 369.871 535.517 370.08 535.386C370.28 535.26 370.539 534.986 370.424 534.686C370.296 534.478 370.135 534.293 369.947 534.137C369.78 533.975 369.605 533.821 369.423 533.677C369.057 533.384 368.665 533.126 368.252 532.905C368.614 533.196 368.96 533.498 369.296 533.805C369.629 534.093 369.931 534.416 370.196 534.768C370.267 534.918 370.134 535.096 369.95 535.226C369.766 535.356 369.541 535.466 369.341 535.598C368.93 535.847 368.523 536.11 368.123 536.382Z" fill="#206467"/><path id="Path 77_2" d="M372.284 537.344C372.584 537.444 372.884 537.526 373.184 537.597C373.338 537.639 373.495 537.67 373.654 537.691C373.755 537.712 373.861 537.701 373.955 537.659C374.05 537.618 374.13 537.548 374.183 537.459C374.232 537.147 374.23 536.83 374.177 536.519C374.137 536.221 374.064 535.929 373.958 535.648C373.977 535.948 373.987 536.248 373.995 536.538C374.012 536.819 374.001 537.101 373.964 537.38C373.908 537.559 373.516 537.463 373.226 537.426C372.915 537.388 372.601 537.361 372.284 537.344Z" fill="#206467"/></g><g id="Group 440_2"><path id="Path 78_2" d="M380.397 539.641C382.004 538.504 383.387 537.08 384.478 535.441C385.576 533.813 386.798 532.273 388.133 530.834C386.678 532.159 385.39 533.655 384.295 535.29C383.206 536.916 381.894 538.38 380.397 539.641Z" fill="#206467"/><path id="Path 79_2" d="M385.375 530.583C385.325 531.074 385.286 531.566 385.262 532.059C385.244 532.305 385.242 532.552 385.233 532.799C385.203 533.061 385.219 533.327 385.28 533.584C385.34 533.72 385.45 533.828 385.588 533.885C385.725 533.943 385.879 533.946 386.018 533.893C386.242 533.806 386.461 533.706 386.673 533.593C387.094 533.386 387.51 533.166 387.92 532.933C387.474 533.084 387.033 533.247 386.597 533.423C386.382 533.498 386.152 533.623 385.959 533.679C385.872 533.716 385.775 533.717 385.687 533.683C385.6 533.649 385.529 533.582 385.49 533.496C385.438 533.271 385.421 533.039 385.441 532.809C385.441 532.562 385.447 532.315 385.441 532.068C385.435 531.574 385.409 531.079 385.375 530.583Z" fill="#206467"/><path id="Path 80_2" d="M383.767 534.23C383.719 534.568 383.683 534.906 383.667 535.245C383.65 535.415 383.65 535.584 383.642 535.754C383.619 535.94 383.63 536.128 383.673 536.31C383.718 536.412 383.8 536.492 383.902 536.536C384.005 536.579 384.12 536.581 384.224 536.542C384.38 536.482 384.532 536.411 384.678 536.33C384.966 536.183 385.249 536.023 385.526 535.849C385.213 535.94 384.906 536.043 384.603 536.16C384.455 536.207 384.29 536.295 384.166 536.33C384.042 536.365 383.916 536.33 383.885 536.224C383.849 535.902 383.835 535.579 383.843 535.255C383.83 534.919 383.804 534.577 383.767 534.23Z" fill="#206467"/></g></g></g><g id="translate_2" style="transform-origin: center; transform-box: fill-box; animation: translateY 2s linear infinite;"><g id="Group 432_3"><g id="Group 431_3"><path id="Rectangle 97_3" d="M269.001 410.068H268.384V456.782H269.001V410.068Z" fill="url(#paint16_linear_437_16)"/></g></g><g id="Group 435_3"><path id="Ellipse 6_3" d="M288.804 393.974C290.759 382.867 283.34 372.277 272.233 370.322C261.125 368.367 250.536 375.786 248.58 386.893C246.625 398.001 254.044 408.59 265.152 410.545C276.259 412.501 286.849 405.082 288.804 393.974Z" fill="#33A5A9"/><path id="Path 62_3" d="M284.205 392.224C284.205 396.338 282.571 400.284 279.661 403.193C276.752 406.103 272.806 407.737 268.692 407.737C264.578 407.737 260.632 406.103 257.723 403.193C254.813 400.284 253.179 396.338 253.179 392.224C253.179 391.924 253.186 391.624 253.206 391.324C253.433 395.278 255.164 398.995 258.043 401.713C260.922 404.432 264.732 405.947 268.693 405.947C272.653 405.947 276.463 404.432 279.342 401.713C282.222 398.995 283.952 395.278 284.179 391.324C284.199 391.627 284.205 391.926 284.205 392.224Z" fill="#10C8BD"/><path id="Ellipse 7_3" d="M268.692 405.945C277.245 405.945 284.179 399.401 284.179 391.328C284.179 383.255 277.245 376.711 268.692 376.711C260.139 376.711 253.205 383.255 253.205 391.328C253.205 399.401 260.139 405.945 268.692 405.945Z" fill="#1D8E87"/><path id="Path 63_3" d="M284.205 390.431C284.205 390.809 284.192 391.181 284.158 391.547C283.878 387.636 282.127 383.976 279.258 381.304C276.388 378.633 272.613 377.147 268.692 377.147C264.771 377.147 260.995 378.633 258.125 381.304C255.256 383.976 253.505 387.636 253.225 391.547C253.192 391.182 253.178 390.81 253.178 390.431C253.178 386.317 254.812 382.371 257.722 379.462C260.631 376.552 264.577 374.918 268.691 374.918C272.805 374.918 276.751 376.552 279.66 379.462C282.57 382.371 284.204 386.317 284.204 390.431H284.205Z" fill="#206467"/><g id="Group 434_3"><g id="Group 433_3"><path id="Path 64_3" d="M268.057 398.108V396.22C267.045 396.217 266.055 395.932 265.196 395.397L265.644 394.144C266.446 394.663 267.38 394.941 268.336 394.944C269.664 394.944 270.561 394.177 270.561 393.112C270.561 392.084 269.832 391.448 268.448 390.887C266.541 390.14 265.364 389.279 265.364 387.653C265.376 386.89 265.672 386.159 266.194 385.602C266.716 385.046 267.426 384.704 268.187 384.643V382.755H269.346V384.568C270.199 384.575 271.036 384.8 271.777 385.222L271.309 386.456C270.597 386.032 269.782 385.812 268.954 385.82C267.514 385.82 266.972 386.68 266.972 387.428C266.972 388.4 267.664 388.886 269.291 389.56C271.217 390.345 272.191 391.317 272.191 392.982C272.176 393.783 271.867 394.55 271.322 395.136C270.777 395.723 270.034 396.088 269.237 396.161V398.105L268.057 398.108Z" fill="#8ED6D8"/></g></g></g><g id="Group 438_3"><path id="Path 65_3" d="M268.629 429.861C268.629 429.861 274.11 413.038 288.529 418.191C295.86 420.807 268.629 429.861 268.629 429.861Z" fill="url(#paint17_linear_437_16)"/><path id="Path 66_3" d="M268.634 429.861C268.634 429.861 261.047 410.137 249.35 410.137C237.295 410.137 268.634 429.861 268.634 429.861Z" fill="url(#paint18_linear_437_16)"/><g id="Group 436_3"><path id="Path 67_3" d="M267.241 428.273C264.294 425.851 261.653 423.078 259.377 420.016C258.801 419.268 258.257 418.498 257.737 417.716C257.304 416.835 256.63 416.095 255.794 415.581C254.869 415.202 253.896 414.953 252.903 414.841C251.927 414.763 250.995 414.397 250.226 413.791C250.965 414.451 251.884 414.877 252.865 415.015C253.829 415.146 254.771 415.408 255.665 415.792C256.447 416.302 257.068 417.023 257.456 417.872C257.961 418.672 258.49 419.461 259.056 420.225C260.219 421.742 261.484 423.178 262.84 424.525C264.201 425.894 265.673 427.147 267.241 428.273V428.273Z" fill="#206467"/><path id="Path 68_3" d="M252.253 417.349C253.041 417.264 253.826 417.16 254.605 417.033C255.002 416.98 255.397 416.905 255.786 416.81C256.156 416.716 256.698 416.433 256.678 415.899C256.587 415.512 256.432 415.143 256.221 414.806C256.046 414.47 255.854 414.143 255.646 413.827C255.231 413.187 254.757 412.587 254.232 412.034C254.642 412.669 255.024 413.313 255.384 413.963C255.752 414.579 256.054 415.233 256.284 415.913C256.317 416.182 256.02 416.387 255.67 416.495C255.32 416.603 254.915 416.657 254.539 416.76C253.776 416.935 253.01 417.133 252.253 417.349Z" fill="#206467"/><path id="Path 69_3" d="M258.195 420.967C258.605 421.267 259.024 421.554 259.456 421.819C259.673 421.962 259.9 422.091 260.134 422.205C260.28 422.29 260.448 422.328 260.616 422.312C260.784 422.296 260.943 422.228 261.07 422.117C261.304 421.66 261.464 421.169 261.542 420.662C261.632 420.182 261.668 419.692 261.649 419.204C261.524 419.677 261.39 420.14 261.249 420.604C261.131 421.047 260.971 421.477 260.77 421.889C260.592 422.136 260.037 421.789 259.606 421.583C259.146 421.356 258.675 421.154 258.195 420.967Z" fill="#206467"/></g><g id="Group 437_3"><path id="Path 70_3" d="M269.557 428.662C272.651 427.905 275.398 426.087 278.012 424.262C280.539 422.308 283.214 420.553 286.012 419.012C283.087 420.315 280.33 421.968 277.802 423.935C275.289 425.889 272.513 427.48 269.557 428.662V428.662Z" fill="#206467"/><path id="Path 71_3" d="M281.883 417.21C281.554 417.943 281.244 418.685 280.954 419.434C280.8 419.805 280.672 420.186 280.531 420.562C280.35 420.952 280.239 421.371 280.201 421.799C280.225 422.04 280.34 422.263 280.522 422.422C280.705 422.581 280.942 422.664 281.184 422.654C281.575 422.635 281.963 422.593 282.349 422.528C283.106 422.428 283.861 422.296 284.614 422.146C283.847 422.146 283.082 422.176 282.314 422.226C281.944 422.232 281.525 422.304 281.197 422.295C280.853 422.275 280.564 422.082 280.565 421.772C280.6 421.397 280.693 421.031 280.841 420.685C280.966 420.303 281.102 419.925 281.214 419.537C281.462 418.77 281.681 417.994 281.883 417.21Z" fill="#206467"/><path id="Path 72_3" d="M277.53 422.032C277.284 422.532 277.054 423.032 276.849 423.547C276.737 423.8 276.649 424.063 276.549 424.321C276.419 424.596 276.34 424.893 276.314 425.196C276.331 425.376 276.416 425.543 276.552 425.662C276.689 425.781 276.865 425.844 277.046 425.837C277.318 425.823 277.589 425.789 277.856 425.737C278.377 425.658 278.895 425.553 279.412 425.427C278.882 425.407 278.353 425.409 277.827 425.436C277.575 425.436 277.274 425.484 277.065 425.475C276.836 425.455 276.681 425.34 276.685 425.167C276.794 424.651 276.938 424.144 277.116 423.648C277.274 423.116 277.411 422.58 277.53 422.032Z" fill="#206467"/></g></g><g id="Group 441_3"><path id="Path 73_3" d="M268.591 443.341C268.591 443.341 268.556 435.758 275.117 435.913C278.449 435.992 268.591 443.341 268.591 443.341Z" fill="url(#paint19_linear_437_16)"/><path id="Path 74_3" d="M268.592 443.341C268.592 443.341 262.849 436.341 258.092 437.912C253.185 439.536 268.592 443.341 268.592 443.341Z" fill="url(#paint20_linear_437_16)"/><g id="Group 439_3"><path id="Path 75_3" d="M267.81 442.883C266.285 442.295 264.837 441.522 263.499 440.583C263.164 440.356 262.839 440.116 262.522 439.867C262.227 439.567 261.853 439.357 261.444 439.26C261.017 439.23 260.587 439.26 260.168 439.348C259.76 439.448 259.332 439.424 258.938 439.281C259.327 439.45 259.758 439.5 260.176 439.424C260.586 439.347 261.005 439.327 261.421 439.363C261.807 439.464 262.157 439.672 262.43 439.963C262.743 440.221 263.065 440.47 263.398 440.705C264.076 441.166 264.784 441.581 265.517 441.947C266.254 442.322 267.021 442.635 267.81 442.883V442.883Z" fill="#206467"/><path id="Path 76_3" d="M260.242 440.457C260.551 440.316 260.857 440.168 261.157 440.012C261.311 439.937 261.462 439.853 261.607 439.762C261.745 439.674 261.927 439.486 261.847 439.271C261.758 439.126 261.645 438.996 261.514 438.888C261.398 438.775 261.275 438.668 261.148 438.567C260.893 438.363 260.619 438.182 260.331 438.028C260.583 438.228 260.825 438.442 261.06 438.658C261.294 438.859 261.505 439.084 261.691 439.33C261.74 439.43 261.647 439.559 261.519 439.65C261.391 439.741 261.234 439.817 261.094 439.91C260.805 440.084 260.521 440.266 260.242 440.457Z" fill="#206467"/><path id="Path 77_3" d="M263.146 441.129C263.353 441.197 263.562 441.256 263.774 441.306C263.882 441.335 263.991 441.357 264.102 441.372C264.173 441.387 264.246 441.38 264.313 441.35C264.379 441.321 264.434 441.272 264.471 441.21C264.506 440.993 264.506 440.771 264.471 440.554C264.443 440.346 264.392 440.143 264.318 439.947C264.331 440.156 264.339 440.363 264.344 440.568C264.356 440.764 264.348 440.961 264.322 441.156C264.283 441.281 264.01 441.213 263.807 441.188C263.604 441.163 263.367 441.14 263.146 441.129Z" fill="#206467"/></g><g id="Group 440_3"><path id="Path 78_3" d="M268.805 442.729C269.926 441.936 270.891 440.943 271.652 439.8C272.418 438.664 273.27 437.59 274.202 436.586C273.187 437.51 272.289 438.554 271.525 439.695C270.765 440.829 269.849 441.85 268.805 442.729Z" fill="#206467"/><path id="Path 79_3" d="M272.278 436.41C272.243 436.753 272.216 437.096 272.199 437.44C272.186 437.612 272.185 437.784 272.179 437.956C272.158 438.139 272.169 438.324 272.211 438.503C272.253 438.598 272.33 438.673 272.425 438.714C272.521 438.754 272.629 438.756 272.726 438.719C272.882 438.659 273.035 438.589 273.183 438.511C273.477 438.367 273.767 438.214 274.053 438.051C273.742 438.156 273.434 438.27 273.13 438.393C272.98 438.445 272.819 438.531 272.685 438.571C272.625 438.597 272.556 438.598 272.495 438.574C272.434 438.551 272.384 438.504 272.357 438.444C272.321 438.287 272.309 438.125 272.323 437.965C272.323 437.793 272.323 437.621 272.323 437.448C272.317 437.101 272.302 436.756 272.278 436.41Z" fill="#206467"/><path id="Path 80_3" d="M271.156 438.953C271.123 439.189 271.097 439.425 271.083 439.661C271.071 439.779 271.071 439.898 271.066 440.016C271.05 440.146 271.058 440.277 271.088 440.404C271.119 440.475 271.176 440.532 271.247 440.563C271.319 440.593 271.399 440.594 271.472 440.566C271.581 440.524 271.687 440.474 271.789 440.418C271.989 440.315 272.186 440.203 272.38 440.082C272.162 440.149 271.947 440.221 271.736 440.299C271.636 440.332 271.517 440.393 271.436 440.417C271.355 440.441 271.261 440.417 271.236 440.343C271.211 440.119 271.201 439.893 271.207 439.667C271.199 439.435 271.181 439.197 271.156 438.953Z" fill="#206467"/></g></g></g><g id="translate_3" style="transform-origin: center; transform-box: fill-box; animation: translateX 2s linear infinite;"><g id="Group 432_4"><g id="Group 431_4"><path id="Rectangle 97_4" d="M69.074 524.487H68.608V559.782H69.074V524.487Z" fill="url(#paint21_linear_437_16)"/></g></g><g id="Group 435_4"><path id="Ellipse 6_4" d="M84.0367 512.328C85.514 503.935 79.9085 495.935 71.5163 494.457C63.1241 492.98 55.1233 498.586 53.646 506.978C52.1686 515.37 57.7742 523.371 66.1664 524.848C74.5585 526.325 82.5593 520.72 84.0367 512.328Z" fill="#33A5A9"/><path id="Path 62_4" d="M80.562 511.005C80.562 514.114 79.3271 517.095 77.129 519.293C74.9309 521.491 71.9497 522.726 68.8411 522.726C65.7325 522.726 62.7511 521.491 60.553 519.293C58.3549 517.095 57.12 514.114 57.12 511.005C57.12 510.779 57.125 510.553 57.14 510.328C57.3146 513.313 58.6233 516.118 60.7983 518.169C62.9733 520.221 65.8501 521.364 68.84 521.364C71.8298 521.364 74.7067 520.221 76.8817 518.169C79.0567 516.118 80.3654 513.313 80.54 510.328C80.557 510.554 80.562 510.78 80.562 511.005Z" fill="#10C8BD"/><path id="Ellipse 7_4" d="M68.841 521.372C75.3033 521.372 80.542 516.427 80.542 510.328C80.542 504.229 75.3033 499.284 68.841 499.284C62.3787 499.284 57.14 504.229 57.14 510.328C57.14 516.427 62.3787 521.372 68.841 521.372Z" fill="#1D8E87"/><path id="Path 63_4" d="M80.562 509.65C80.562 509.936 80.552 510.217 80.527 510.493C80.3185 507.536 78.9968 504.768 76.8282 502.747C74.6596 500.726 71.8055 499.602 68.8411 499.602C65.8766 499.602 63.0225 500.726 60.8539 502.747C58.6853 504.768 57.3635 507.536 57.155 510.493C57.13 510.217 57.12 509.936 57.12 509.65C57.12 506.541 58.3549 503.56 60.553 501.362C62.7511 499.164 65.7325 497.929 68.8411 497.929C71.9497 497.929 74.9309 499.164 77.129 501.362C79.3271 503.56 80.562 506.541 80.562 509.65Z" fill="#206467"/><g id="Group 434_4"><g id="Group 433_4"><path id="Path 64_4" d="M68.3611 515.451V514.025C67.5969 514.022 66.8486 513.807 66.2001 513.403L66.539 512.456C67.1448 512.849 67.8508 513.06 68.573 513.063C69.573 513.063 70.254 512.484 70.254 511.679C70.254 510.902 69.703 510.422 68.654 509.998C67.213 509.433 66.324 508.783 66.324 507.554C66.3326 506.977 66.556 506.425 66.9504 506.004C67.3449 505.583 67.8821 505.325 68.457 505.279V503.853H69.332V505.223C69.9766 505.228 70.6091 505.399 71.169 505.718L70.815 506.65C70.2773 506.33 69.6618 506.164 69.036 506.17C67.948 506.17 67.536 506.82 67.536 507.385C67.536 508.119 68.0591 508.485 69.2881 508.995C70.7431 509.588 71.477 510.323 71.477 511.58C71.4655 512.185 71.2315 512.764 70.8197 513.207C70.4079 513.649 69.8472 513.925 69.245 513.98V515.449L68.3611 515.451Z" fill="#8ED6D8"/></g></g></g><g id="Group 438_4"><path id="Path 65_4" d="M68.793 539.442C68.793 539.442 72.934 526.731 83.831 530.624C89.369 532.6 68.793 539.442 68.793 539.442Z" fill="url(#paint22_linear_437_16)"/><path id="Path 66_4" d="M68.7969 539.442C68.7969 539.442 63.065 524.542 54.227 524.542C45.119 524.539 68.7969 539.442 68.7969 539.442Z" fill="url(#paint23_linear_437_16)"/><g id="Group 436_4"><path id="Path 67_4" d="M67.744 538.241C65.5169 536.411 63.5215 534.316 61.802 532.002C61.367 531.437 60.956 530.855 60.563 530.263C60.2356 529.598 59.7267 529.038 59.095 528.65C58.3964 528.363 57.6614 528.175 56.911 528.091C56.1733 528.032 55.4695 527.756 54.8881 527.298C55.4466 527.797 56.1404 528.119 56.882 528.223C57.6113 528.322 58.3238 528.519 59 528.81C59.5909 529.195 60.0601 529.74 60.353 530.382C60.735 530.982 61.134 531.582 61.561 532.16C62.44 533.307 63.3952 534.393 64.42 535.412C65.4482 536.445 66.56 537.391 67.744 538.241V538.241Z" fill="#206467"/><path id="Path 68_4" d="M56.42 529.987C57.02 529.922 57.609 529.844 58.197 529.748C58.4971 529.708 58.7949 529.651 59.089 529.579C59.368 529.508 59.778 529.294 59.763 528.891C59.6943 528.599 59.5776 528.32 59.418 528.065C59.2855 527.811 59.1403 527.564 58.983 527.325C58.6693 526.842 58.3118 526.389 57.915 525.971C58.225 526.45 58.515 526.937 58.786 527.429C59.0657 527.894 59.2949 528.388 59.47 528.902C59.495 529.102 59.27 529.26 59.006 529.342C58.742 529.424 58.435 529.464 58.151 529.542C57.571 529.676 56.994 529.825 56.42 529.987Z" fill="#206467"/><path id="Path 69_4" d="M60.91 532.722C61.219 532.95 61.536 533.166 61.863 533.366C62.0271 533.474 62.1981 533.572 62.375 533.658C62.4851 533.723 62.6126 533.751 62.7396 533.739C62.8667 533.727 62.9868 533.676 63.083 533.592C63.2601 533.247 63.3802 532.875 63.439 532.492C63.5073 532.13 63.5345 531.761 63.52 531.392C63.426 531.749 63.32 532.1 63.22 532.446C63.1311 532.781 63.0099 533.106 62.858 533.417C62.723 533.604 62.304 533.341 61.978 533.186C61.628 533.015 61.272 532.863 60.91 532.722Z" fill="#206467"/></g><g id="Group 437_4"><path id="Path 70_4" d="M69.495 538.536C71.8104 537.829 73.9759 536.701 75.883 535.21C77.7936 533.734 79.8156 532.407 81.931 531.243C79.7217 532.228 77.6399 533.477 75.7311 534.963C73.8302 536.44 71.7309 537.643 69.495 538.536V538.536Z" fill="#206467"/><path id="Path 71_4" d="M78.808 529.883C78.5594 530.437 78.326 530.997 78.108 531.563C77.992 531.843 77.895 532.131 77.789 532.415C77.6525 532.71 77.5682 533.026 77.54 533.349C77.5577 533.531 77.6447 533.7 77.7829 533.82C77.9211 533.94 78.1 534.003 78.283 533.995C78.578 533.981 78.8718 533.949 79.163 533.9C79.735 533.822 80.305 533.724 80.875 533.611C80.296 533.611 79.718 533.633 79.141 533.672C78.861 533.672 78.541 533.731 78.297 533.724C78.053 533.717 77.819 533.563 77.82 533.329C77.8459 533.046 77.9161 532.769 78.028 532.508C78.122 532.219 78.228 531.934 78.31 531.641C78.49 531.062 78.655 530.475 78.808 529.883Z" fill="#206467"/><path id="Path 72_4" d="M75.52 533.526C75.334 533.902 75.1611 534.283 75.0051 534.671C74.9201 534.862 74.854 535.061 74.779 535.256C74.6808 535.464 74.6205 535.688 74.601 535.917C74.6139 536.053 74.6785 536.179 74.7813 536.269C74.8841 536.359 75.0174 536.406 75.154 536.401C75.3594 536.391 75.564 536.367 75.766 536.329C76.159 536.269 76.5511 536.19 76.9421 536.095C76.5421 536.08 76.142 536.081 75.742 536.102C75.551 536.102 75.324 536.138 75.167 536.131C74.994 536.116 74.8771 536.031 74.8801 535.898C74.9625 535.508 75.0713 535.125 75.206 534.75C75.326 534.348 75.43 533.94 75.52 533.526Z" fill="#206467"/></g></g><g id="Group 441_4"><path id="Path 73_4" d="M68.765 549.627C68.765 549.627 68.738 543.898 73.696 544.015C76.213 544.074 68.765 549.627 68.765 549.627Z" fill="url(#paint24_linear_437_16)"/><path id="Path 74_4" d="M68.7661 549.627C68.7661 549.627 64.427 544.335 60.831 545.527C57.125 546.752 68.7661 549.627 68.7661 549.627Z" fill="url(#paint25_linear_437_16)"/><g id="Group 439_4"><path id="Path 75_4" d="M68.175 549.28C67.0227 548.835 65.929 548.252 64.918 547.542C64.665 547.371 64.418 547.189 64.18 547.001C63.957 546.774 63.6745 546.616 63.3651 546.543C63.0422 546.521 62.7176 546.543 62.401 546.61C62.0928 546.686 61.7691 546.668 61.471 546.559C61.7654 546.687 62.0912 546.724 62.4071 546.667C62.7172 546.609 63.0336 546.593 63.348 546.62C63.64 546.697 63.9043 546.856 64.1101 547.077C64.3471 547.272 64.589 547.46 64.841 547.638C65.3527 547.986 65.8872 548.3 66.441 548.576C66.9986 548.858 67.5786 549.094 68.175 549.28V549.28Z" fill="#206467"/><path id="Path 76_4" d="M62.4581 547.447C62.6921 547.34 62.922 547.229 63.149 547.11C63.2657 547.053 63.3793 546.99 63.4891 546.921C63.5891 546.855 63.7309 546.712 63.6709 546.55C63.6034 546.441 63.5183 546.343 63.419 546.261C63.3312 546.175 63.2391 546.094 63.143 546.018C62.9503 545.864 62.7438 545.727 62.5261 545.611C62.7171 545.764 62.9 545.924 63.077 546.087C63.2535 546.239 63.4134 546.409 63.554 546.594C63.591 546.673 63.521 546.767 63.424 546.835C63.327 546.903 63.208 546.962 63.103 547.035C62.8836 547.166 62.6687 547.303 62.4581 547.447Z" fill="#206467"/><path id="Path 77_4" d="M64.651 547.955C64.807 548.006 64.965 548.055 65.125 548.088C65.2064 548.11 65.2893 548.127 65.373 548.138C65.4264 548.149 65.4821 548.144 65.5322 548.122C65.5822 548.1 65.6242 548.063 65.6521 548.016C65.6792 547.85 65.6792 547.682 65.6521 547.516C65.6312 547.359 65.5925 547.205 65.537 547.057C65.547 547.215 65.553 547.371 65.557 547.526C65.5656 547.674 65.5599 547.823 65.54 547.97C65.51 548.064 65.304 548.013 65.151 547.994C64.998 547.975 64.818 547.964 64.651 547.955Z" fill="#206467"/></g><g id="Group 440_4"><path id="Path 78_4" d="M68.927 549.165C69.7738 548.566 70.503 547.815 71.078 546.952C71.6568 546.094 72.301 545.282 73.005 544.524C72.2383 545.222 71.559 546.011 70.982 546.873C70.4076 547.729 69.7159 548.501 68.927 549.165Z" fill="#206467"/><path id="Path 79_4" d="M71.551 544.39C71.525 544.649 71.504 544.908 71.492 545.168C71.482 545.298 71.482 545.428 71.477 545.558C71.4612 545.696 71.4697 545.837 71.502 545.972C71.5338 546.044 71.5918 546.101 71.6641 546.131C71.7365 546.161 71.8177 546.163 71.891 546.135C72.0091 546.09 72.1243 546.037 72.236 545.978C72.458 545.869 72.677 545.753 72.893 545.63C72.658 545.71 72.4251 545.795 72.1931 545.888C72.0791 545.928 71.958 545.988 71.857 546.023C71.8109 546.042 71.7593 546.042 71.7131 546.024C71.6669 546.005 71.6299 545.969 71.61 545.923C71.5825 545.805 71.5737 545.682 71.584 545.561C71.584 545.431 71.584 545.301 71.584 545.17C71.583 544.912 71.568 544.651 71.551 544.39Z" fill="#206467"/><path id="Path 80_4" d="M70.7041 546.31C70.6791 546.488 70.66 546.666 70.649 546.845C70.64 546.934 70.6401 547.024 70.6361 547.113C70.6242 547.211 70.63 547.31 70.653 547.406C70.6766 547.46 70.7198 547.502 70.7736 547.525C70.8275 547.548 70.8882 547.549 70.9431 547.529C71.0252 547.497 71.1049 547.46 71.182 547.417C71.334 547.34 71.483 547.255 71.629 547.163C71.464 547.211 71.302 547.263 71.143 547.327C71.065 547.352 70.978 547.398 70.913 547.416C70.848 547.434 70.781 547.416 70.765 547.36C70.746 547.19 70.7387 547.02 70.743 546.849C70.733 546.675 70.7231 546.495 70.7041 546.31Z" fill="#206467"/></g></g></g><g id="translate_4" style="transform-origin: center; transform-box: fill-box; animation: translateY 2s linear infinite;"><g id="Group 432_5"><g id="Group 431_5"><path id="Rectangle 97_5" d="M157.575 410.178H156.457V494.782H157.575V410.178Z" fill="url(#paint26_linear_437_16)"/></g></g><g id="Group 435_5"><path id="Ellipse 6_5" d="M193.439 381.031C196.98 360.915 183.543 341.736 163.427 338.195C143.311 334.654 124.132 348.091 120.591 368.207C117.05 388.323 130.487 407.502 150.603 411.043C170.719 414.584 189.898 401.148 193.439 381.031Z" fill="#33A5A9"/><path id="Path 62_5" d="M185.111 377.861C185.174 381.591 184.494 385.295 183.11 388.759C181.726 392.223 179.667 395.377 177.052 398.036C174.436 400.696 171.318 402.809 167.878 404.251C164.438 405.692 160.745 406.435 157.015 406.435C153.285 406.435 149.592 405.692 146.152 404.251C142.712 402.809 139.594 400.696 136.978 398.036C134.363 395.377 132.304 392.223 130.92 388.759C129.536 385.295 128.856 381.591 128.919 377.861C128.919 377.32 128.931 376.779 128.967 376.237C129.373 383.402 132.505 390.139 137.721 395.068C142.937 399.997 149.841 402.742 157.017 402.742C164.193 402.742 171.097 399.997 176.313 395.068C181.529 390.139 184.661 383.402 185.067 376.237C185.099 376.783 185.111 377.32 185.111 377.861Z" fill="#10C8BD"/><path id="Ellipse 7_5" d="M157.015 402.709C172.505 402.709 185.063 390.857 185.063 376.237C185.063 361.617 172.505 349.765 157.015 349.765C141.525 349.765 128.967 361.617 128.967 376.237C128.967 390.857 141.525 402.709 157.015 402.709Z" fill="#1D8E87"/><path id="Path 63_5" d="M185.111 374.614C185.111 375.299 185.087 375.973 185.027 376.634C184.522 369.549 181.352 362.919 176.154 358.079C170.956 353.238 164.118 350.547 157.015 350.547C149.912 350.547 143.074 353.238 137.876 358.079C132.678 362.919 129.508 369.549 129.003 376.634C128.943 375.972 128.919 375.299 128.919 374.614C128.856 370.885 129.536 367.18 130.92 363.716C132.304 360.252 134.363 357.098 136.978 354.439C139.594 351.779 142.712 349.666 146.152 348.224C149.592 346.783 153.285 346.04 157.015 346.04C160.745 346.04 164.438 346.783 167.878 348.224C171.318 349.666 174.436 351.779 177.052 354.439C179.667 357.098 181.726 360.252 183.11 363.716C184.494 367.18 185.174 370.885 185.111 374.614V374.614Z" fill="#206467"/><g id="Group 434_5"><g id="Group 433_5"><path id="Path 64_5" d="M155.864 388.518V385.099C154.032 385.093 152.238 384.577 150.683 383.609L151.495 381.34C152.947 382.283 154.64 382.789 156.371 382.796C158.771 382.796 160.401 381.408 160.401 379.478C160.401 377.615 159.08 376.464 156.574 375.448C153.121 374.094 150.988 372.537 150.988 369.59C150.988 366.779 152.988 364.646 156.101 364.138V360.719H158.201V364.003C159.745 364.016 161.26 364.424 162.601 365.188L161.753 367.423C160.464 366.655 158.988 366.257 157.488 366.272C154.88 366.272 153.898 367.83 153.898 369.183C153.898 370.944 155.151 371.825 158.098 373.043C161.586 374.465 163.346 376.226 163.346 379.243C163.346 381.919 161.483 384.424 157.996 385V388.521L155.864 388.518Z" fill="#8ED6D8"/></g></g></g><g id="Group 438_5"><path id="Path 65_5" d="M156.905 446.029C156.905 446.029 166.832 415.56 192.951 424.893C206.219 429.629 156.905 446.029 156.905 446.029Z" fill="url(#paint27_linear_437_16)"/><path id="Path 66_5" d="M156.91 446.026C156.91 446.026 143.17 410.303 121.985 410.303C100.151 410.303 156.91 446.026 156.91 446.026Z" fill="url(#paint28_linear_437_16)"/><g id="Group 436_5"><path id="Path 67_5" d="M154.386 443.148C149.048 438.761 144.265 433.739 140.143 428.193C139.1 426.838 138.115 425.444 137.173 424.024C136.259 422.653 135.387 420.964 133.654 420.157C131.979 419.47 130.217 419.02 128.418 418.818C126.65 418.676 124.963 418.015 123.569 416.918C124.908 418.113 126.571 418.885 128.348 419.135C130.097 419.372 131.805 419.845 133.426 420.542C134.999 421.312 135.751 422.857 136.669 424.309C137.587 425.761 138.541 427.186 139.569 428.571C141.676 431.322 143.966 433.928 146.423 436.371C148.886 438.845 151.55 441.112 154.386 443.148V443.148Z" fill="#206467"/><path id="Path 68_5" d="M127.241 423.365C128.669 423.21 130.09 423.023 131.501 422.793C132.221 422.698 132.935 422.565 133.64 422.393C134.309 422.223 135.292 421.71 135.255 420.744C135.09 420.043 134.811 419.375 134.428 418.765C134.111 418.157 133.763 417.565 133.386 416.992C132.634 415.833 131.776 414.747 130.825 413.745C131.567 414.894 132.259 416.061 132.912 417.239C133.582 418.355 134.132 419.539 134.551 420.771C134.61 421.258 134.073 421.629 133.439 421.825C132.805 422.021 132.071 422.119 131.39 422.304C129.998 422.615 128.616 422.974 127.241 423.365Z" fill="#206467"/><path id="Path 69_5" d="M138.001 429.917C138.743 430.463 139.501 430.98 140.285 431.46C140.678 431.72 141.089 431.954 141.513 432.16C141.777 432.315 142.084 432.384 142.389 432.355C142.694 432.327 142.982 432.203 143.213 432.001C143.638 431.174 143.926 430.284 144.068 429.365C144.231 428.495 144.296 427.609 144.261 426.725C144.035 427.581 143.791 428.425 143.539 429.251C143.326 430.053 143.036 430.833 142.672 431.579C142.349 432.027 141.344 431.396 140.563 431.025C139.726 430.621 138.871 430.255 138.001 429.917Z" fill="#206467"/></g><g id="Group 437_5"><path id="Path 70_5" d="M158.582 443.854C164.182 442.482 169.162 439.191 173.895 435.882C178.614 432.492 183.237 428.982 188.395 426.373C182.995 428.441 178.261 431.984 173.525 435.289C168.82 438.673 164.003 441.922 158.582 443.854Z" fill="#206467"/><path id="Path 71_5" d="M180.906 423.113C180.306 424.441 179.745 425.782 179.223 427.14C178.945 427.812 178.712 428.502 178.457 429.183C178.129 429.889 177.926 430.647 177.857 431.423C177.899 431.86 178.108 432.264 178.439 432.552C178.77 432.841 179.199 432.991 179.638 432.972C180.345 432.938 181.05 432.862 181.748 432.745C183.119 432.558 184.486 432.324 185.848 432.053C184.46 432.061 183.074 432.107 181.692 432.199C181.021 432.21 180.263 432.34 179.67 432.325C179.047 432.288 178.523 431.939 178.526 431.378C178.588 430.7 178.757 430.035 179.026 429.409C179.252 428.716 179.499 428.032 179.702 427.33C180.145 425.939 180.541 424.529 180.906 423.113Z" fill="#206467"/><path id="Path 72_5" d="M173.022 431.846C172.576 432.746 172.161 433.66 171.788 434.59C171.588 435.048 171.426 435.524 171.246 435.99C171.011 436.489 170.867 437.025 170.82 437.574C170.851 437.9 171.005 438.202 171.252 438.418C171.498 438.634 171.818 438.747 172.145 438.735C172.637 438.712 173.128 438.654 173.612 438.562C174.555 438.418 175.493 438.229 176.43 438.001C175.47 437.966 174.513 437.968 173.559 438.017C173.102 438.011 172.559 438.104 172.18 438.087C171.766 438.052 171.48 437.843 171.491 437.529C171.688 436.595 171.949 435.676 172.271 434.778C172.559 433.817 172.807 432.838 173.022 431.846Z" fill="#206467"/></g></g><g id="Group 441_5"><path id="Path 73_5" d="M156.832 470.439C156.832 470.439 156.768 456.706 168.652 456.986C174.686 457.133 156.832 470.439 156.832 470.439Z" fill="url(#paint29_linear_437_16)"/><path id="Path 74_5" d="M156.833 470.44C156.833 470.44 146.433 457.755 137.812 460.608C128.929 463.548 156.833 470.44 156.833 470.44Z" fill="url(#paint30_linear_437_16)"/><g id="Group 439_5"><path id="Path 75_5" d="M155.417 469.609C152.654 468.543 150.032 467.144 147.609 465.442C147.002 465.031 146.409 464.597 145.839 464.142C145.305 463.598 144.628 463.217 143.886 463.042C143.112 462.988 142.334 463.042 141.575 463.202C140.836 463.383 140.061 463.341 139.346 463.081C140.052 463.387 140.832 463.478 141.589 463.34C142.332 463.201 143.091 463.164 143.845 463.229C144.546 463.415 145.18 463.797 145.672 464.329C146.24 464.796 146.821 465.248 147.425 465.673C148.652 466.508 149.935 467.259 151.263 467.922C152.599 468.598 153.988 469.162 155.417 469.609V469.609Z" fill="#206467"/><path id="Path 76_5" d="M141.71 465.215C142.27 464.959 142.823 464.692 143.366 464.408C143.646 464.272 143.918 464.121 144.182 463.956C144.432 463.797 144.762 463.456 144.617 463.067C144.456 462.805 144.254 462.571 144.017 462.374C143.806 462.169 143.585 461.975 143.354 461.792C142.892 461.422 142.397 461.095 141.875 460.816C142.332 461.183 142.775 461.565 143.195 461.957C143.618 462.321 144.001 462.728 144.337 463.173C144.426 463.363 144.258 463.587 144.026 463.752C143.794 463.917 143.509 464.052 143.257 464.222C142.731 464.538 142.215 464.869 141.71 465.215Z" fill="#206467"/><path id="Path 77_5" d="M146.969 466.432C147.344 466.554 147.723 466.662 148.106 466.752C148.301 466.805 148.5 466.845 148.7 466.871C148.828 466.898 148.961 466.885 149.081 466.832C149.201 466.779 149.301 466.691 149.368 466.578C149.43 466.184 149.427 465.783 149.361 465.39C149.311 465.014 149.218 464.645 149.084 464.29C149.107 464.668 149.121 465.043 149.131 465.415C149.152 465.77 149.138 466.126 149.091 466.479C149.02 466.705 148.525 466.579 148.158 466.538C147.767 466.484 147.369 466.452 146.969 466.432Z" fill="#206467"/></g><g id="Group 440_5"><path id="Path 78_5" d="M157.22 469.33C159.25 467.893 160.999 466.094 162.377 464.024C163.764 461.967 165.308 460.021 166.995 458.203C165.157 459.877 163.529 461.767 162.146 463.833C160.77 465.887 159.111 467.737 157.22 469.33V469.33Z" fill="#206467"/><path id="Path 79_5" d="M163.51 457.886C163.447 458.507 163.397 459.128 163.367 459.751C163.344 460.062 163.343 460.374 163.331 460.686C163.293 461.018 163.313 461.353 163.39 461.678C163.466 461.85 163.605 461.987 163.779 462.06C163.952 462.132 164.147 462.136 164.323 462.069C164.606 461.96 164.883 461.834 165.151 461.692C165.684 461.431 166.21 461.153 166.727 460.858C166.163 461.049 165.606 461.258 165.056 461.477C164.784 461.572 164.493 461.726 164.25 461.8C164.141 461.847 164.017 461.849 163.906 461.805C163.796 461.762 163.706 461.677 163.657 461.569C163.591 461.285 163.57 460.992 163.595 460.701C163.595 460.389 163.602 460.077 163.595 459.764C163.582 459.139 163.554 458.513 163.51 457.886Z" fill="#206467"/><path id="Path 80_5" d="M161.478 462.496C161.417 462.923 161.372 463.35 161.345 463.779C161.324 463.993 161.324 464.208 161.314 464.422C161.286 464.656 161.299 464.893 161.354 465.122C161.411 465.252 161.515 465.354 161.645 465.409C161.776 465.464 161.922 465.466 162.054 465.416C162.251 465.34 162.442 465.251 162.627 465.149C162.992 464.963 163.349 464.76 163.698 464.541C163.303 464.656 162.914 464.787 162.532 464.934C162.345 464.993 162.132 465.104 161.98 465.148C161.806 465.19 161.664 465.143 161.624 465.014C161.578 464.608 161.561 464.199 161.571 463.79C161.556 463.365 161.524 462.933 161.478 462.496Z" fill="#206467"/></g></g></g><g id="translate_5" style="transform-origin: center; transform-box: fill-box; animation: translateX 2s linear infinite;"><g id="Group 432_6"><g id="Group 431_6"><path id="Rectangle 97_6" d="M573.79 510.525H573.337V544.782H573.79V510.525Z" fill="url(#paint31_linear_437_16)"/></g></g><g id="Group 435_6"><path id="Ellipse 6_6" d="M588.311 498.723C589.745 490.578 584.304 482.813 576.159 481.379C568.014 479.945 560.248 485.386 558.814 493.531C557.38 501.676 562.821 509.441 570.966 510.875C579.111 512.309 586.877 506.869 588.311 498.723Z" fill="#33A5A9"/><path id="Path 62_6" d="M584.94 497.439C584.94 500.456 583.741 503.35 581.608 505.483C579.474 507.617 576.581 508.815 573.563 508.815C570.546 508.815 567.653 507.617 565.519 505.483C563.386 503.35 562.187 500.456 562.187 497.439C562.187 497.22 562.187 497.001 562.207 496.782C562.375 499.68 563.644 502.405 565.756 504.398C567.867 506.391 570.661 507.501 573.564 507.501C576.467 507.501 579.261 506.391 581.372 504.398C583.484 502.405 584.753 499.68 584.921 496.782C584.935 497.001 584.94 497.22 584.94 497.439Z" fill="#10C8BD"/><path id="Ellipse 7_6" d="M573.563 507.501C579.835 507.501 584.92 502.702 584.92 496.782C584.92 490.862 579.835 486.063 573.563 486.063C567.291 486.063 562.206 490.862 562.206 496.782C562.206 502.702 567.291 507.501 573.563 507.501Z" fill="#1D8E87"/><path id="Path 63_6" d="M584.94 496.125C584.94 496.403 584.93 496.675 584.906 496.943C584.701 494.075 583.417 491.391 581.312 489.432C579.208 487.473 576.439 486.384 573.564 486.384C570.689 486.384 567.92 487.473 565.816 489.432C563.711 491.391 562.427 494.075 562.222 496.943C562.198 496.675 562.188 496.402 562.188 496.125C562.188 493.108 563.387 490.214 565.52 488.081C567.654 485.947 570.547 484.749 573.565 484.749C576.582 484.749 579.475 485.947 581.609 488.081C583.742 490.214 584.941 493.108 584.941 496.125H584.94Z" fill="#206467"/><g id="Group 434_6"><g id="Group 433_6"><path id="Path 64_6" d="M573.097 501.755V500.371C572.355 500.37 571.628 500.162 570.997 499.771L571.326 498.852C571.914 499.234 572.599 499.438 573.3 499.441C574.274 499.441 574.932 498.879 574.932 498.098C574.932 497.344 574.397 496.878 573.382 496.466C571.982 495.918 571.12 495.287 571.12 494.094C571.128 493.534 571.345 492.998 571.728 492.59C572.111 492.181 572.632 491.93 573.19 491.886V490.502H574.04V491.832C574.666 491.837 575.28 492.002 575.823 492.312L575.48 493.212C574.958 492.901 574.361 492.74 573.753 492.746C572.697 492.746 572.299 493.377 572.299 493.925C572.299 494.638 572.807 494.995 573.999 495.488C575.411 496.064 576.124 496.777 576.124 497.997C576.113 498.584 575.886 499.146 575.487 499.577C575.087 500.007 574.543 500.274 573.958 500.328V501.754L573.097 501.755Z" fill="#8ED6D8"/></g></g></g><g id="Group 438_6"><path id="Path 65_6" d="M573.516 525.04C573.516 525.04 577.535 512.703 588.116 516.482C593.486 518.401 573.516 525.04 573.516 525.04Z" fill="url(#paint32_linear_437_16)"/><path id="Path 66_6" d="M573.52 525.04C573.52 525.04 567.957 510.575 559.378 510.575C550.538 510.576 573.52 525.04 573.52 525.04Z" fill="url(#paint33_linear_437_16)"/><g id="Group 436_6"><path id="Path 67_6" d="M572.498 523.875C570.336 522.099 568.4 520.065 566.731 517.82C566.309 517.271 565.91 516.707 565.531 516.132C565.213 515.486 564.719 514.943 564.106 514.566C563.428 514.288 562.714 514.106 561.986 514.024C561.27 513.966 560.587 513.699 560.023 513.254C560.565 513.739 561.238 514.052 561.958 514.154C562.666 514.25 563.358 514.442 564.014 514.724C564.587 515.098 565.043 515.627 565.327 516.249C565.698 516.836 566.085 517.414 566.5 517.975C567.353 519.089 568.28 520.143 569.275 521.132C570.272 522.133 571.35 523.051 572.498 523.875V523.875Z" fill="#206467"/><path id="Path 68_6" d="M561.507 515.865C562.085 515.802 562.661 515.726 563.232 515.633C563.523 515.594 563.812 515.539 564.098 515.469C564.369 515.4 564.767 515.192 564.752 514.801C564.685 514.518 564.572 514.247 564.417 514.001C564.289 513.755 564.148 513.515 563.995 513.283C563.69 512.814 563.343 512.374 562.958 511.968C563.258 512.433 563.539 512.906 563.803 513.383C564.075 513.835 564.297 514.314 564.467 514.813C564.491 515.013 564.273 515.161 564.017 515.24C563.761 515.319 563.463 515.359 563.187 515.434C562.624 515.562 562.064 515.707 561.507 515.865Z" fill="#206467"/><path id="Path 69_6" d="M565.865 518.519C566.165 518.74 566.473 518.949 566.79 519.144C566.95 519.249 567.117 519.344 567.29 519.427C567.397 519.49 567.521 519.517 567.644 519.506C567.767 519.494 567.884 519.444 567.977 519.363C568.149 519.028 568.266 518.668 568.323 518.296C568.389 517.944 568.415 517.585 568.401 517.227C568.31 517.574 568.211 517.914 568.108 518.25C568.022 518.575 567.904 518.891 567.757 519.193C567.626 519.375 567.219 519.119 566.903 518.969C566.565 518.804 566.216 518.655 565.865 518.519Z" fill="#206467"/></g><g id="Group 437_6"><path id="Path 70_6" d="M574.198 524.161C576.445 523.475 578.547 522.38 580.398 520.933C582.252 519.5 584.215 518.213 586.268 517.083C584.123 518.039 582.101 519.251 580.247 520.693C578.403 522.127 576.367 523.294 574.198 524.161V524.161Z" fill="#206467"/><path id="Path 71_6" d="M583.237 515.763C582.996 516.301 582.767 516.844 582.556 517.394C582.443 517.666 582.349 517.945 582.246 518.221C582.113 518.507 582.032 518.814 582.004 519.128C582.022 519.304 582.107 519.467 582.241 519.584C582.375 519.7 582.548 519.761 582.725 519.755C583.012 519.741 583.297 519.711 583.58 519.663C584.135 519.587 584.688 519.494 585.241 519.383C584.679 519.383 584.118 519.405 583.558 519.442C583.286 519.442 582.979 519.499 582.739 519.493C582.499 519.487 582.275 519.337 582.276 519.11C582.3 518.835 582.368 518.565 582.476 518.31C582.567 518.03 582.668 517.753 582.749 517.468C582.93 516.907 583.089 516.338 583.237 515.763Z" fill="#206467"/><path id="Path 72_6" d="M580.044 519.299C579.863 519.664 579.695 520.034 579.544 520.41C579.461 520.596 579.397 520.788 579.325 520.978C579.23 521.18 579.171 521.397 579.152 521.619C579.164 521.751 579.227 521.874 579.327 521.961C579.427 522.048 579.556 522.094 579.689 522.089C579.888 522.08 580.087 522.056 580.283 522.019C580.665 521.961 581.045 521.884 581.424 521.792C581.035 521.778 580.648 521.779 580.262 521.798C580.077 521.798 579.856 521.833 579.704 521.826C579.552 521.819 579.422 521.726 579.425 521.6C579.505 521.222 579.611 520.85 579.741 520.486C579.857 520.097 579.957 519.7 580.044 519.299Z" fill="#206467"/></g></g><g id="Group 441_6"><path id="Path 73_6" d="M573.489 534.927C573.489 534.927 573.463 529.366 578.275 529.48C580.723 529.535 573.489 534.927 573.489 534.927Z" fill="url(#paint34_linear_437_16)"/><path id="Path 74_6" d="M573.489 534.925C573.489 534.925 569.278 529.789 565.789 530.944C562.19 532.134 573.489 534.925 573.489 534.925Z" fill="url(#paint35_linear_437_16)"/><g id="Group 439_6"><path id="Path 75_6" d="M572.916 534.588C571.798 534.156 570.736 533.59 569.755 532.901C569.509 532.735 569.271 532.559 569.038 532.376C568.822 532.156 568.547 532.002 568.247 531.931C567.934 531.909 567.619 531.931 567.311 531.996C567.013 532.069 566.7 532.052 566.411 531.947C566.697 532.069 567.013 532.104 567.319 532.047C567.62 531.991 567.927 531.976 568.232 532.002C568.516 532.077 568.772 532.231 568.972 532.446C569.202 532.635 569.437 532.818 569.682 532.99C570.179 533.328 570.698 533.633 571.236 533.901C571.776 534.176 572.338 534.406 572.916 534.588Z" fill="#206467"/><path id="Path 76_6" d="M567.367 532.809C567.594 532.709 567.818 532.597 568.038 532.482C568.151 532.427 568.261 532.366 568.368 532.299C568.468 532.235 568.603 532.099 568.544 531.939C568.479 531.832 568.396 531.738 568.3 531.658C568.215 531.575 568.125 531.497 568.032 531.423C567.845 531.271 567.644 531.138 567.432 531.023C567.617 531.172 567.794 531.323 567.966 531.485C568.137 531.632 568.293 531.797 568.429 531.977C568.465 532.054 568.397 532.144 568.303 532.211C568.209 532.278 568.094 532.334 567.991 532.402C567.779 532.533 567.571 532.669 567.367 532.809Z" fill="#206467"/><path id="Path 77_6" d="M569.495 533.302C569.647 533.352 569.8 533.395 569.955 533.432C570.034 533.453 570.115 533.469 570.196 533.48C570.248 533.491 570.302 533.486 570.351 533.464C570.399 533.443 570.44 533.407 570.467 533.361C570.493 533.202 570.493 533.039 570.467 532.88C570.447 532.728 570.409 532.579 570.355 532.435C570.365 532.588 570.37 532.735 570.374 532.891C570.383 533.035 570.377 533.179 570.358 533.322C570.329 533.413 570.129 533.364 569.98 533.346C569.831 533.328 569.657 533.31 569.495 533.302Z" fill="#206467"/></g><g id="Group 440_6"><path id="Path 78_6" d="M573.645 534.476C574.467 533.894 575.175 533.166 575.733 532.328C576.295 531.495 576.92 530.707 577.603 529.971C576.859 530.649 576.199 531.414 575.639 532.251C575.082 533.082 574.411 533.831 573.645 534.476V534.476Z" fill="#206467"/><path id="Path 79_6" d="M576.192 529.842C576.166 530.093 576.146 530.342 576.134 530.597C576.125 530.723 576.124 530.849 576.119 530.976C576.104 531.11 576.112 531.245 576.143 531.376C576.174 531.445 576.231 531.5 576.301 531.53C576.371 531.559 576.45 531.56 576.521 531.534C576.636 531.49 576.747 531.439 576.856 531.381C577.072 531.275 577.285 531.162 577.494 531.043C577.266 531.12 577.04 531.203 576.817 531.294C576.707 531.332 576.589 531.394 576.491 531.425C576.447 531.444 576.397 531.445 576.352 531.427C576.307 531.409 576.271 531.375 576.251 531.331C576.224 531.216 576.216 531.097 576.226 530.979C576.226 530.853 576.226 530.726 576.226 530.6C576.221 530.349 576.21 530.096 576.192 529.842Z" fill="#206467"/><path id="Path 80_6" d="M575.369 531.705C575.345 531.878 575.326 532.051 575.315 532.224C575.306 532.311 575.306 532.398 575.302 532.485C575.291 532.58 575.296 532.676 575.318 532.769C575.341 532.821 575.383 532.862 575.435 532.884C575.488 532.907 575.547 532.908 575.6 532.888C575.68 532.857 575.757 532.821 575.832 532.78C575.979 532.705 576.124 532.623 576.266 532.534C576.106 532.581 575.949 532.634 575.794 532.693C575.718 532.717 575.634 532.762 575.571 532.78C575.508 532.798 575.443 532.78 575.427 532.726C575.408 532.56 575.401 532.393 575.405 532.226C575.4 532.06 575.387 531.885 575.369 531.705Z" fill="#206467"/></g></g></g><g id="Path 120" style="mix-blend-mode:multiply"><path d="M371.134 561.06C371.134 560.354 375.209 559.781 380.234 559.781C385.259 559.781 389.334 560.353 389.334 561.06C389.334 561.767 385.259 562.339 380.234 562.339C375.209 562.339 371.134 561.767 371.134 561.06Z" fill="#E6E7E8"/></g></g></g></g><defs><linearGradient id="paint0_linear_437_16" x1="260.075" y1="436.627" x2="260.075" y2="630.782" gradientUnits="userSpaceOnUse"><stop stop-color="#33A5A9" stop-opacity="0"/><stop offset="1" stop-color="#33A5A9"/></linearGradient><linearGradient id="paint1_linear_437_16" x1="-52.1121" y1="436.627" x2="-52.1121" y2="630.782" gradientUnits="userSpaceOnUse"><stop stop-color="#33A5A9" stop-opacity="0"/><stop offset="1" stop-color="#33A5A9"/></linearGradient><linearGradient id="paint2_linear_437_16" x1="530.781" y1="436.627" x2="530.781" y2="630.782" gradientUnits="userSpaceOnUse"><stop stop-color="#33A5A9" stop-opacity="0"/><stop offset="1" stop-color="#33A5A9"/></linearGradient><linearGradient id="paint3_linear_437_16" x1="116.312" y1="198.179" x2="111.243" y2="436.569" gradientUnits="userSpaceOnUse"><stop stop-color="#10C8BD"/><stop offset="1" stop-color="#10C8BD" stop-opacity="0"/></linearGradient><linearGradient id="paint4_linear_437_16" x1="249.827" y1="70.2567" x2="237.867" y2="436.304" gradientUnits="userSpaceOnUse"><stop stop-color="#10C8BD"/><stop offset="1" stop-color="#10C8BD" stop-opacity="0"/></linearGradient><linearGradient id="paint5_linear_437_16" x1="383.342" y1="198.179" x2="378.273" y2="436.569" gradientUnits="userSpaceOnUse"><stop stop-color="#10C8BD"/><stop offset="1" stop-color="#10C8BD" stop-opacity="0"/></linearGradient><linearGradient id="paint6_linear_437_16" x1="480.106" y1="382.765" x2="495.299" y2="382.78" gradientUnits="userSpaceOnUse"><stop stop-color="#10C8BD"/><stop offset="0.176" stop-color="#8ED6D8"/><stop offset="0.54" stop-color="#1D8E87"/><stop offset="1" stop-color="#33A5A9"/></linearGradient><linearGradient id="paint7_linear_437_16" x1="489.387" y1="407.598" x2="535.796" y2="407.598" gradientUnits="userSpaceOnUse"><stop stop-color="#10C8BD"/><stop offset="0.176" stop-color="#8ED6D8"/><stop offset="0.54" stop-color="#1D8E87"/><stop offset="1" stop-color="#33A5A9"/></linearGradient><linearGradient id="paint8_linear_437_16" x1="441.033" y1="399.843" x2="489.395" y2="399.843" gradientUnits="userSpaceOnUse"><stop stop-color="#10C8BD"/><stop offset="0.176" stop-color="#8ED6D8"/><stop offset="0.54" stop-color="#1D8E87"/><stop offset="1" stop-color="#33A5A9"/></linearGradient><linearGradient id="paint9_linear_437_16" x1="480.719" y1="451.048" x2="505.694" y2="431.476" gradientUnits="userSpaceOnUse"><stop stop-color="#10C8BD"/><stop offset="0.176" stop-color="#8ED6D8"/><stop offset="0.54" stop-color="#1D8E87"/><stop offset="1" stop-color="#33A5A9"/></linearGradient><linearGradient id="paint10_linear_437_16" x1="450.508" y1="451.049" x2="467.94" y2="422.535" gradientUnits="userSpaceOnUse"><stop stop-color="#10C8BD"/><stop offset="0.176" stop-color="#8ED6D8"/><stop offset="0.54" stop-color="#1D8E87"/><stop offset="1" stop-color="#33A5A9"/></linearGradient><linearGradient id="paint11_linear_437_16" x1="374.082" y1="495.905" x2="384.012" y2="495.914" gradientUnits="userSpaceOnUse"><stop stop-color="#10C8BD"/><stop offset="0.176" stop-color="#8ED6D8"/><stop offset="0.54" stop-color="#1D8E87"/><stop offset="1" stop-color="#33A5A9"/></linearGradient><linearGradient id="paint12_linear_437_16" x1="380.147" y1="512.128" x2="410.468" y2="512.128" gradientUnits="userSpaceOnUse"><stop stop-color="#10C8BD"/><stop offset="0.176" stop-color="#8ED6D8"/><stop offset="0.54" stop-color="#1D8E87"/><stop offset="1" stop-color="#33A5A9"/></linearGradient><linearGradient id="paint13_linear_437_16" x1="348.555" y1="507.064" x2="380.151" y2="507.064" gradientUnits="userSpaceOnUse"><stop stop-color="#10C8BD"/><stop offset="0.176" stop-color="#8ED6D8"/><stop offset="0.54" stop-color="#1D8E87"/><stop offset="1" stop-color="#33A5A9"/></linearGradient><linearGradient id="paint14_linear_437_16" x1="374.485" y1="540.518" x2="390.799" y2="527.728" gradientUnits="userSpaceOnUse"><stop stop-color="#10C8BD"/><stop offset="0.176" stop-color="#8ED6D8"/><stop offset="0.54" stop-color="#1D8E87"/><stop offset="1" stop-color="#33A5A9"/></linearGradient><linearGradient id="paint15_linear_437_16" x1="354.748" y1="540.518" x2="366.136" y2="521.889" gradientUnits="userSpaceOnUse"><stop stop-color="#10C8BD"/><stop offset="0.176" stop-color="#8ED6D8"/><stop offset="0.54" stop-color="#1D8E87"/><stop offset="1" stop-color="#33A5A9"/></linearGradient><linearGradient id="paint16_linear_437_16" x1="264.403" y1="412.217" x2="271.326" y2="412.223" gradientUnits="userSpaceOnUse"><stop stop-color="#10C8BD"/><stop offset="0.176" stop-color="#8ED6D8"/><stop offset="0.54" stop-color="#1D8E87"/><stop offset="1" stop-color="#33A5A9"/></linearGradient><linearGradient id="paint17_linear_437_16" x1="268.629" y1="423.535" x2="289.782" y2="423.535" gradientUnits="userSpaceOnUse"><stop stop-color="#10C8BD"/><stop offset="0.176" stop-color="#8ED6D8"/><stop offset="0.54" stop-color="#1D8E87"/><stop offset="1" stop-color="#33A5A9"/></linearGradient><linearGradient id="paint18_linear_437_16" x1="246.59" y1="419.999" x2="268.634" y2="419.999" gradientUnits="userSpaceOnUse"><stop stop-color="#10C8BD"/><stop offset="0.176" stop-color="#8ED6D8"/><stop offset="0.54" stop-color="#1D8E87"/><stop offset="1" stop-color="#33A5A9"/></linearGradient><linearGradient id="paint19_linear_437_16" x1="264.681" y1="443.341" x2="276.063" y2="434.419" gradientUnits="userSpaceOnUse"><stop stop-color="#10C8BD"/><stop offset="0.176" stop-color="#8ED6D8"/><stop offset="0.54" stop-color="#1D8E87"/><stop offset="1" stop-color="#33A5A9"/></linearGradient><linearGradient id="paint20_linear_437_16" x1="250.913" y1="443.341" x2="258.858" y2="430.345" gradientUnits="userSpaceOnUse"><stop stop-color="#10C8BD"/><stop offset="0.176" stop-color="#8ED6D8"/><stop offset="0.54" stop-color="#1D8E87"/><stop offset="1" stop-color="#33A5A9"/></linearGradient><linearGradient id="paint21_linear_437_16" x1="65.6009" y1="526.111" x2="70.8298" y2="526.116" gradientUnits="userSpaceOnUse"><stop stop-color="#10C8BD"/><stop offset="0.176" stop-color="#8ED6D8"/><stop offset="0.54" stop-color="#1D8E87"/><stop offset="1" stop-color="#33A5A9"/></linearGradient><linearGradient id="paint22_linear_437_16" x1="68.793" y1="534.662" x2="84.7773" y2="534.662" gradientUnits="userSpaceOnUse"><stop stop-color="#10C8BD"/><stop offset="0.176" stop-color="#8ED6D8"/><stop offset="0.54" stop-color="#1D8E87"/><stop offset="1" stop-color="#33A5A9"/></linearGradient><linearGradient id="paint23_linear_437_16" x1="52.1417" y1="531.992" x2="68.7969" y2="531.992" gradientUnits="userSpaceOnUse"><stop stop-color="#10C8BD"/><stop offset="0.176" stop-color="#8ED6D8"/><stop offset="0.54" stop-color="#1D8E87"/><stop offset="1" stop-color="#33A5A9"/></linearGradient><linearGradient id="paint24_linear_437_16" x1="65.8108" y1="549.627" x2="74.4101" y2="542.886" gradientUnits="userSpaceOnUse"><stop stop-color="#10C8BD"/><stop offset="0.176" stop-color="#8ED6D8"/><stop offset="0.54" stop-color="#1D8E87"/><stop offset="1" stop-color="#33A5A9"/></linearGradient><linearGradient id="paint25_linear_437_16" x1="55.407" y1="549.627" x2="61.4079" y2="539.808" gradientUnits="userSpaceOnUse"><stop stop-color="#10C8BD"/><stop offset="0.176" stop-color="#8ED6D8"/><stop offset="0.54" stop-color="#1D8E87"/><stop offset="1" stop-color="#33A5A9"/></linearGradient><linearGradient id="paint26_linear_437_16" x1="149.243" y1="414.07" x2="161.787" y2="414.082" gradientUnits="userSpaceOnUse"><stop stop-color="#10C8BD"/><stop offset="0.176" stop-color="#8ED6D8"/><stop offset="0.54" stop-color="#1D8E87"/><stop offset="1" stop-color="#33A5A9"/></linearGradient><linearGradient id="paint27_linear_437_16" x1="156.905" y1="434.573" x2="195.218" y2="434.573" gradientUnits="userSpaceOnUse"><stop stop-color="#10C8BD"/><stop offset="0.176" stop-color="#8ED6D8"/><stop offset="0.54" stop-color="#1D8E87"/><stop offset="1" stop-color="#33A5A9"/></linearGradient><linearGradient id="paint28_linear_437_16" x1="116.986" y1="428.165" x2="156.91" y2="428.165" gradientUnits="userSpaceOnUse"><stop stop-color="#10C8BD"/><stop offset="0.176" stop-color="#8ED6D8"/><stop offset="0.54" stop-color="#1D8E87"/><stop offset="1" stop-color="#33A5A9"/></linearGradient><linearGradient id="paint29_linear_437_16" x1="149.751" y1="470.439" x2="170.364" y2="454.28" gradientUnits="userSpaceOnUse"><stop stop-color="#10C8BD"/><stop offset="0.176" stop-color="#8ED6D8"/><stop offset="0.54" stop-color="#1D8E87"/><stop offset="1" stop-color="#33A5A9"/></linearGradient><linearGradient id="paint30_linear_437_16" x1="124.81" y1="470.44" x2="139.201" y2="446.9" gradientUnits="userSpaceOnUse"><stop stop-color="#10C8BD"/><stop offset="0.176" stop-color="#8ED6D8"/><stop offset="0.54" stop-color="#1D8E87"/><stop offset="1" stop-color="#33A5A9"/></linearGradient><linearGradient id="paint31_linear_437_16" x1="570.414" y1="512.101" x2="575.497" y2="512.106" gradientUnits="userSpaceOnUse"><stop stop-color="#10C8BD"/><stop offset="0.176" stop-color="#8ED6D8"/><stop offset="0.54" stop-color="#1D8E87"/><stop offset="1" stop-color="#33A5A9"/></linearGradient><linearGradient id="paint32_linear_437_16" x1="573.516" y1="520.401" x2="589.033" y2="520.401" gradientUnits="userSpaceOnUse"><stop stop-color="#10C8BD"/><stop offset="0.176" stop-color="#8ED6D8"/><stop offset="0.54" stop-color="#1D8E87"/><stop offset="1" stop-color="#33A5A9"/></linearGradient><linearGradient id="paint33_linear_437_16" x1="557.354" y1="517.808" x2="573.52" y2="517.808" gradientUnits="userSpaceOnUse"><stop stop-color="#10C8BD"/><stop offset="0.176" stop-color="#8ED6D8"/><stop offset="0.54" stop-color="#1D8E87"/><stop offset="1" stop-color="#33A5A9"/></linearGradient><linearGradient id="paint34_linear_437_16" x1="570.621" y1="534.927" x2="578.968" y2="528.382" gradientUnits="userSpaceOnUse"><stop stop-color="#10C8BD"/><stop offset="0.176" stop-color="#8ED6D8"/><stop offset="0.54" stop-color="#1D8E87"/><stop offset="1" stop-color="#33A5A9"/></linearGradient><linearGradient id="paint35_linear_437_16" x1="560.524" y1="534.925" x2="566.351" y2="525.394" gradientUnits="userSpaceOnUse"><stop stop-color="#10C8BD"/><stop offset="0.176" stop-color="#8ED6D8"/><stop offset="0.54" stop-color="#1D8E87"/><stop offset="1" stop-color="#33A5A9"/></linearGradient><clipPath id="clip0_437_16"><rect width="876.235" height="630.782" fill="white"/></clipPath></defs><style> @keyframes translateX { 0%, 100% { transform: translateX(0px); } 50% { transform: translateX(-5px); } } @keyframes translateY { 0%, 100% { transform: translateY(0px); } 50% { transform: translateY(5px); } }</style></svg>