<svg width="28" height="28" viewBox="0 0 28 28" fill="none" xmlns="http://www.w3.org/2000/svg">
<g clip-path="url(#clip0_441_246)">
<path fill-rule="evenodd" clip-rule="evenodd" d="M14.0001 0C16.7691 0 19.4758 0.821086 21.7781 2.35943C24.0804 3.89777 25.8748 6.08427 26.9344 8.64243C27.9941 11.2006 28.2713 14.0155 27.7311 16.7313C27.1909 19.447 25.8575 21.9416 23.8996 23.8995C21.9417 25.8574 19.4471 27.1908 16.7314 27.731C14.0157 28.2712 11.2007 27.9939 8.64255 26.9343C6.08439 25.8747 3.89789 24.0803 2.35955 21.778C0.821208 19.4757 0.00012207 16.7689 0.00012207 14C0.00012207 10.287 1.47512 6.72601 4.10063 4.1005C6.72614 1.475 10.2871 0 14.0001 0V0ZM6.72212 17.509C7.3016 17.3785 7.84556 17.123 8.31592 16.7602C8.78628 16.3975 9.17167 15.9363 9.44512 15.409C10.3671 13.88 8.97412 14.309 8.14512 13.588C7.70612 13.207 7.96612 12.658 8.48212 12.534C8.97112 12.416 9.95112 13.122 9.86912 12.419C9.80109 11.7482 9.78738 11.073 9.82812 10.4C10.0481 5.7 17.6191 5.72 18.1351 10.106C18.208 10.868 18.206 11.6354 18.1291 12.397C18.0641 13.218 18.9641 12.282 19.6701 12.597C19.7723 12.6252 19.8646 12.6815 19.9364 12.7596C20.0081 12.8377 20.0565 12.9344 20.076 13.0386C20.0955 13.1428 20.0853 13.2504 20.0466 13.3492C20.0079 13.4479 19.9422 13.5338 19.8571 13.597C19.3141 14.069 17.8961 14.065 18.3121 14.943C18.558 15.5693 18.9492 16.1283 19.4534 16.5739C19.9575 17.0194 20.5603 17.3389 21.2121 17.506C22.0381 17.699 21.5001 18.335 20.9801 18.532C20.2971 18.791 19.5391 18.662 19.4291 19.411C19.3691 19.82 19.2461 19.877 18.8291 19.844C17.8291 19.763 17.1881 19.544 16.2801 20.28C15.7571 20.7627 15.0923 21.0638 14.3845 21.1388C13.6767 21.2137 12.9637 21.0584 12.3511 20.696C10.6971 19.731 11.0581 19.639 9.09212 19.856C8.84412 19.883 8.60512 19.813 8.59212 19.556C8.54212 18.642 7.66712 18.809 6.95212 18.51C6.40212 18.28 6.05212 17.648 6.71812 17.515L6.72212 17.509Z" fill="black"/>
</g>
<defs>
<clipPath id="clip0_441_246">
<rect width="28" height="28" fill="white" transform="translate(28.0001) rotate(90)"/>
</clipPath>
</defs>
</svg>
