<svg width="28" height="28" viewBox="0 0 28 28" fill="none" xmlns="http://www.w3.org/2000/svg">
<g clip-path="url(#clip0_441_249)">
<path d="M14.0001 0C11.2312 0 8.52443 0.821086 6.22214 2.35943C3.91986 3.89777 2.12544 6.08427 1.06581 8.64243C0.00618815 11.2006 -0.271059 14.0155 0.269134 16.7313C0.809327 19.447 2.1427 21.9416 4.10063 23.8995C6.05857 25.8574 8.55313 27.1908 11.2689 27.731C13.9846 28.2712 16.7995 27.9939 19.3577 26.9343C21.9159 25.8747 24.1024 24.0803 25.6407 21.778C27.179 19.4757 28.0001 16.7689 28.0001 14C27.9959 10.2883 26.5195 6.72977 23.8949 4.10518C21.2704 1.48059 17.7119 0.00423472 14.0001 0V0ZM20.2451 10.8C20.2511 10.939 20.2551 11.079 20.2551 11.218C20.2552 12.8626 19.8128 14.477 18.9742 15.8918C18.1357 17.3066 16.9319 18.4698 15.4891 19.2593C14.0464 20.0487 12.4178 20.4355 10.7741 20.379C9.13043 20.3225 7.53225 19.8247 6.14713 18.938C7.85168 19.1387 9.56649 18.6578 10.9181 17.6C10.2457 17.5874 9.59403 17.3649 9.05431 16.9636C8.5146 16.5623 8.11384 16.0023 7.90813 15.362C8.39093 15.4548 8.88853 15.4363 9.36313 15.308C8.63386 15.1605 7.97809 14.7652 7.5071 14.1892C7.03611 13.6132 6.7789 12.892 6.77913 12.148C6.77913 12.134 6.77913 12.12 6.77913 12.107C7.22663 12.3547 7.72687 12.4918 8.23813 12.507C7.55632 12.0515 7.0735 11.3534 6.88776 10.5548C6.70202 9.75608 6.82729 8.91665 7.23813 8.207C8.04713 9.20255 9.05643 10.0169 10.2005 10.5971C11.3446 11.1773 12.5979 11.5105 13.8791 11.575C13.7183 10.8841 13.7897 10.1594 14.0823 9.51324C14.3749 8.86703 14.8725 8.33534 15.4978 8.0005C16.1232 7.66566 16.8415 7.54635 17.5416 7.66106C18.2416 7.77577 18.8843 8.11808 19.3701 8.635C20.0922 8.49334 20.7845 8.22883 21.4171 7.853C21.1766 8.59973 20.673 9.23369 20.0001 9.637C20.6391 9.56191 21.2631 9.39099 21.8511 9.13C21.4204 9.7786 20.8764 10.3443 20.2451 10.8Z" fill="black"/>
</g>
<defs>
<clipPath id="clip0_441_249">
<rect width="28" height="28" fill="white" transform="translate(28.0001) rotate(90)"/>
</clipPath>
</defs>
</svg>
