<svg width="44" height="44" viewBox="0 0 44 44" fill="none" xmlns="http://www.w3.org/2000/svg">
<path opacity="0.4" d="M37.583 18.682H32.283C30.1937 18.6775 28.1912 17.8455 26.7138 16.3682C25.2365 14.8908 24.4045 12.8883 24.4 10.799V5.499C24.3982 5.01369 24.2046 4.54878 23.8614 4.20562C23.5182 3.86245 23.0533 3.66884 22.568 3.667H14.795C9.14801 3.667 4.58301 7.334 4.58301 13.879V30.122C4.58301 36.667 9.14801 40.334 14.795 40.334H29.205C34.852 40.334 39.417 36.667 39.417 30.122V20.515C39.4154 20.0292 39.2217 19.5637 38.878 19.2203C38.5344 18.8768 38.0688 18.6833 37.583 18.682V18.682Z" fill="black"/>
<path d="M28.966 4.051C28.8009 3.88396 28.5905 3.76903 28.3607 3.72044C28.131 3.67185 27.892 3.69174 27.6734 3.77766C27.4549 3.86357 27.2663 4.01172 27.1312 4.20376C26.996 4.39579 26.9201 4.62327 26.913 4.858V11.258C26.9393 12.574 27.4834 13.8265 28.4273 14.7439C29.3712 15.6612 30.6388 16.1693 31.955 16.158C33.697 16.176 36.117 16.176 38.188 16.176C38.4181 16.1827 38.645 16.1206 38.8396 15.9976C39.0341 15.8746 39.1876 15.6962 39.2802 15.4855C39.3728 15.2747 39.4003 15.0411 39.3593 14.8146C39.3183 14.5881 39.2106 14.3789 39.05 14.214C36.413 11.55 31.68 6.765 28.966 4.051Z" fill="black"/>
<path d="M11.8834 28.472L15.5494 32.142C15.5684 32.157 15.5864 32.157 15.5864 32.175C15.7047 32.2869 15.8396 32.3797 15.9864 32.45H16.0264C16.1689 32.4981 16.3166 32.529 16.4664 32.542H16.6134C16.7314 32.535 16.8477 32.5104 16.9584 32.469C17.0024 32.454 17.0452 32.4356 17.0864 32.414C17.2369 32.3502 17.373 32.2567 17.4864 32.139L21.1584 28.472C21.4053 28.2123 21.541 27.8664 21.5366 27.5081C21.5321 27.1498 21.3878 26.8074 21.1345 26.5539C20.8812 26.3004 20.5388 26.156 20.1805 26.1513C19.8222 26.1467 19.4762 26.2822 19.2164 26.529L17.8964 27.849V20.167C17.8964 19.8023 17.7515 19.4526 17.4937 19.1947C17.2358 18.9369 16.8861 18.792 16.5214 18.792C16.1567 18.792 15.807 18.9369 15.5491 19.1947C15.2913 19.4526 15.1464 19.8023 15.1464 20.167L15.1464 27.849L13.8264 26.529C13.699 26.4012 13.5475 26.2998 13.3808 26.2306C13.2141 26.1614 13.0354 26.1258 12.8549 26.1258C12.6744 26.1258 12.4957 26.1614 12.329 26.2306C12.1623 26.2998 12.0109 26.4012 11.8834 26.529C11.628 26.7878 11.4847 27.1368 11.4847 27.5005C11.4847 27.8642 11.628 28.2132 11.8834 28.472V28.472Z" fill="black"/>
</svg>
