<svg xmlns="http://www.w3.org/2000/svg" width="60" height="60" viewBox="0 0 60 60">
  <g id="Group_508" data-name="Group 508" transform="translate(-1153 -1885)">
    <rect id="Rectangle_100" data-name="Rectangle 100" width="60" height="60" transform="translate(1153 1885)" fill="#206467"/>
    <g id="email" transform="translate(1168 1899.995)">
      <path id="Path_171" data-name="Path 171" d="M30,11.9v0c0-.025,0-.05,0-.074,0-.007,0-.013,0-.02s0-.038-.008-.057l0-.021c0-.023-.01-.046-.017-.069l0-.007c-.007-.023-.015-.046-.023-.068l-.01-.025q-.01-.023-.021-.045l-.013-.026c-.011-.021-.023-.041-.035-.06l-.015-.022-.031-.042-.017-.022c-.015-.019-.031-.037-.048-.054l0,0c-.018-.018-.038-.036-.057-.053l-.007-.007-1.5-1.244V6.158a2.053,2.053,0,0,0-2.051-2.051H21.107L17.058.747a3.225,3.225,0,0,0-4.116,0L8.893,4.107H3.867A2.053,2.053,0,0,0,1.816,6.158V9.98l-1.5,1.244-.007.007c-.02.017-.039.034-.057.053l0,0c-.017.017-.033.036-.048.054l-.017.022-.031.042-.015.022c-.013.02-.024.04-.035.06l-.013.026c-.007.015-.014.03-.021.045l-.01.025c-.009.022-.017.045-.023.068l0,.007c-.007.023-.012.046-.017.069l0,.021q-.005.028-.008.057c0,.007,0,.013,0,.02,0,.025,0,.049,0,.074v0H0V26.782a3.213,3.213,0,0,0,1.011,2.34c.018.018.035.035.054.051a3.21,3.21,0,0,0,2.158.831H26.778a3.21,3.21,0,0,0,2.158-.832c.019-.016.036-.033.054-.051A3.213,3.213,0,0,0,30,26.782V11.9h0ZM3.867,5.865H26.133a.293.293,0,0,1,.293.293V13l-.5.413L15.936,21.7a1.466,1.466,0,0,1-1.871,0L4.072,13.408,3.574,13V6.158a.293.293,0,0,1,.293-.293ZM1.758,26.782V13.772l.378.314h0l8.582,7.122L1.848,27.288a1.457,1.457,0,0,1-.09-.506Zm10.368-4.407.817.678a3.224,3.224,0,0,0,4.116,0l.817-.678,8.568,5.871H3.558Zm7.156-1.167,8.582-7.122h0l.378-.314v13.01a1.457,1.457,0,0,1-.09.506ZM14.065,2.1a1.466,1.466,0,0,1,1.871,0l2.419,2.007H11.646Z" fill="#fff"/>
      <path id="Path_172" data-name="Path 172" d="M131.5,150.891a.9.9,0,0,0,.9.9h8.486a.9.9,0,0,0,0-1.793H132.4A.9.9,0,0,0,131.5,150.891Z" transform="translate(-123.872 -141.212)" fill="#fff" opacity="0.4"/>
      <path id="Path_173" data-name="Path 173" d="M132.4,211.788h13.088a.9.9,0,1,0,0-1.793H132.4a.9.9,0,0,0,0,1.793Z" transform="translate(-123.94 -197.701)" fill="#fff" opacity="0.4"/>
    </g>
  </g>
</svg>
