<svg width="80" height="80" viewBox="0 0 80 80" fill="none" xmlns="http://www.w3.org/2000/svg">
<g clip-path="url(#clip0_444_27)">
<path d="M11.719 29.688H38.281C38.8942 29.6753 39.4779 29.4229 39.9071 28.9848C40.3362 28.5466 40.5766 27.9578 40.5766 27.3445C40.5766 26.7312 40.3362 26.1424 39.9071 25.7043C39.4779 25.2661 38.8942 25.0137 38.281 25.001H11.719C11.0973 25.001 10.5011 25.248 10.0615 25.6875C9.62196 26.1271 9.375 26.7233 9.375 27.345C9.375 27.9667 9.62196 28.5629 10.0615 29.0025C10.5011 29.442 11.0973 29.689 11.719 29.689V29.688Z" fill="black" fill-opacity="0.5"/>
<path d="M32.031 34.375H11.719C11.0973 34.375 10.5011 34.622 10.0615 35.0615C9.62196 35.5011 9.375 36.0973 9.375 36.719C9.375 37.3407 9.62196 37.9369 10.0615 38.3765C10.5011 38.8161 11.0973 39.063 11.719 39.063H32.031C32.6442 39.0503 33.2279 38.7979 33.6571 38.3598C34.0862 37.9216 34.3266 37.3328 34.3266 36.7195C34.3266 36.1062 34.0862 35.5174 33.6571 35.0793C33.2279 34.6411 32.6442 34.3887 32.031 34.376V34.375Z" fill="black" fill-opacity="0.5"/>
<path d="M32.031 43.75H11.719C11.0973 43.75 10.5011 43.997 10.0615 44.4366C9.62196 44.8761 9.375 45.4723 9.375 46.094C9.375 46.7157 9.62196 47.3119 10.0615 47.7515C10.5011 48.1911 11.0973 48.438 11.719 48.438H32.031C32.6442 48.4253 33.2279 48.1729 33.6571 47.7347C34.0862 47.2966 34.3266 46.7078 34.3266 46.0945C34.3266 45.4812 34.0862 44.8924 33.6571 44.4543C33.2279 44.0161 32.6442 43.7637 32.031 43.751V43.75Z" fill="black" fill-opacity="0.5"/>
<path d="M32.031 53.125H11.719C11.0973 53.125 10.5011 53.372 10.0615 53.8116C9.62196 54.2511 9.375 54.8473 9.375 55.469C9.375 56.0907 9.62196 56.6869 10.0615 57.1265C10.5011 57.5661 11.0973 57.813 11.719 57.813H32.031C32.6442 57.8003 33.2279 57.5479 33.6571 57.1097C34.0862 56.6716 34.3266 56.0828 34.3266 55.4695C34.3266 54.8562 34.0862 54.2674 33.6571 53.8293C33.2279 53.3911 32.6442 53.1387 32.031 53.126V53.125Z" fill="black" fill-opacity="0.5"/>
<path d="M79.313 66.076L67.593 54.356C69.0755 52.3681 70.0886 50.0703 70.5565 47.635C71.0243 45.1997 70.9346 42.6901 70.2943 40.2943C69.6539 37.8986 68.4793 35.679 66.8588 33.8019C65.2382 31.9248 63.2137 30.4391 60.937 29.456V17.969C60.9369 17.6612 60.8762 17.3565 60.7584 17.0722C60.6405 16.7878 60.4677 16.5295 60.25 16.312L44.627 0.687C44.4093 0.469148 44.1509 0.29634 43.8664 0.178458C43.5819 0.0605767 43.277 -6.53895e-05 42.969 5.29104e-08H8.594C6.31522 0.00158935 4.13022 0.907536 2.51888 2.51888C0.907536 4.13022 0.00158929 6.31522 0 8.594L0 71.406C0.00158929 73.6848 0.907536 75.8698 2.51888 77.4811C4.13022 79.0925 6.31522 79.9984 8.594 80H52.344C54.6228 79.9984 56.8078 79.0925 58.4191 77.4811C60.0305 75.8698 60.9364 73.6848 60.938 71.406V59.61C62.1254 59.0991 63.2476 58.4486 64.281 57.672L76 69.39C76.4418 69.8181 77.0342 70.0554 77.6495 70.0507C78.2647 70.0459 78.8533 69.7994 79.2884 69.3644C79.7235 68.9295 79.9702 68.3409 79.9752 67.7257C79.9801 67.1104 79.743 66.5179 79.315 66.076H79.313ZM62.741 52.818C61.41 54.1537 59.775 55.1468 57.976 55.712C57.9213 55.7267 57.8677 55.7433 57.815 55.762C56.7242 56.0864 55.592 56.2508 54.454 56.25C51.3459 56.25 48.3652 55.0153 46.1674 52.8176C43.9697 50.6198 42.735 47.6391 42.735 44.531C42.735 41.4229 43.9697 38.4422 46.1674 36.2444C48.3652 34.0467 51.3459 32.812 54.454 32.812C55.5924 32.8111 56.7249 32.9755 57.816 33.3C57.868 33.318 57.921 33.335 57.975 33.35C59.8956 33.9563 61.6276 35.0471 63.0041 36.5172C64.3806 37.9874 65.3553 39.7873 65.8341 41.7435C66.3129 43.6998 66.2797 45.7464 65.7378 47.6861C65.1959 49.6258 64.1634 51.3932 62.74 52.818H62.741ZM52.935 15.625H45.313V8L52.935 15.625ZM56.25 71.406C56.2487 72.4415 55.8367 73.4343 55.1045 74.1665C54.3723 74.8987 53.3795 75.3107 52.344 75.312H8.594C7.55847 75.3107 6.56573 74.8987 5.8335 74.1665C5.10127 73.4343 4.68932 72.4415 4.688 71.406V8.594C4.68906 7.5583 5.10089 6.5653 5.83315 5.83286C6.56541 5.10041 7.5583 4.68832 8.594 4.687H40.625V17.969C40.625 18.2768 40.6856 18.5816 40.8034 18.866C40.9212 19.1504 41.0939 19.4088 41.3115 19.6265C41.5292 19.8441 41.7876 20.0168 42.072 20.1346C42.3564 20.2524 42.6612 20.313 42.969 20.313H56.25V28.223C55.6522 28.1573 55.0514 28.1239 54.45 28.123C50.0987 28.123 45.9257 29.8515 42.8489 32.9284C39.772 36.0052 38.0435 40.1782 38.0435 44.5295C38.0435 48.8808 39.772 53.0538 42.8489 56.1306C45.9257 59.2075 50.0987 60.936 54.45 60.936C55.0514 60.9351 55.6522 60.9017 56.25 60.836V71.406Z" fill="black"/>
</g>
<defs>
<clipPath id="clip0_444_27">
<rect width="80" height="80" fill="white"/>
</clipPath>
</defs>
</svg>
