<svg width="81" height="80" viewBox="0 0 81 80" fill="none" xmlns="http://www.w3.org/2000/svg">
<g clip-path="url(#clip0_444_2)">
<path d="M79.958 2.253C79.9262 1.67696 79.683 1.13291 79.275 0.724966C78.8671 0.317024 78.3231 0.0738545 77.747 0.042C77.716 0.04 76.966 0 75.673 0C69.3139 0.0237128 62.9797 0.795688 56.801 2.3C46.552 4.837 38.258 9.219 32.148 15.33C29.4287 18.0696 27.0824 21.1559 25.17 24.509L22.501 21.84C22.1592 21.498 21.72 21.2701 21.2436 21.1875C20.7672 21.105 20.2769 21.1719 19.84 21.379L1.34001 30.141C0.926583 30.3372 0.579544 30.6499 0.341632 31.0408C0.103719 31.4317 -0.0146801 31.8837 0.00101441 32.341L0.975014 60.576C0.990264 61.0327 1.13871 61.4749 1.40209 61.8483C1.66546 62.2217 2.03227 62.5099 2.45736 62.6775C2.88244 62.8451 3.34726 62.8847 3.79458 62.7916C4.24191 62.6984 4.65222 62.4764 4.97501 62.153L20.842 46.284L25.622 51.063L9.75401 66.931C9.53635 67.1487 9.36369 67.4071 9.24589 67.6915C9.12809 67.9759 9.06746 68.2807 9.06746 68.5885C9.06746 68.8963 9.12809 69.2011 9.24589 69.4855C9.36369 69.7699 9.53635 70.0283 9.75401 70.246C9.97168 70.4637 10.2301 70.6363 10.5145 70.7541C10.7989 70.8719 11.1037 70.9326 11.4115 70.9326C11.7193 70.9326 12.0242 70.8719 12.3085 70.7541C12.5929 70.6363 12.8513 70.4637 13.069 70.246L28.936 54.378L33.715 59.157L17.848 75.025C17.5251 75.3479 17.3036 75.7581 17.2106 76.2052C17.1176 76.6523 17.1573 77.1168 17.3247 77.5417C17.4921 77.9665 17.7799 78.3332 18.1529 78.5968C18.5258 78.8603 18.9676 79.0091 19.424 79.025L47.659 80H47.74C48.1837 80 48.6182 79.8741 48.9931 79.6368C49.3681 79.3996 49.668 79.0609 49.858 78.66L58.621 60.16C58.8277 59.7233 58.8945 59.2333 58.8122 58.7572C58.7298 58.281 58.5024 57.842 58.161 57.5L55.491 54.831C58.844 52.9185 61.9303 50.5723 64.67 47.853C68.7332 43.7038 71.9821 38.8291 74.248 33.482C76.2865 28.728 77.7703 23.7548 78.67 18.661C79.687 13.2537 80.1188 7.75271 79.958 2.253V2.253ZM4.73901 33.718L20.353 26.318L22.919 28.885C21.0631 33.0298 19.6493 37.3587 18.701 41.8L5.47401 55.024L4.73901 33.718ZM53.678 59.647L46.278 75.261L24.972 74.526L38.201 61.3C42.6407 60.3508 46.9679 58.9363 51.111 57.08L53.678 59.647ZM74.038 17.931C72.601 25.721 69.238 36.66 61.356 44.538C58.2478 47.6023 54.6637 50.1428 50.743 52.061C50.6119 52.112 50.4857 52.175 50.366 52.249C46.351 54.1735 42.1283 55.6311 37.781 56.593L32.251 51.063L40.33 42.984C40.7582 42.5422 40.9954 41.9498 40.9907 41.3345C40.9859 40.7193 40.7394 40.1307 40.3044 39.6956C39.8695 39.2605 39.2809 39.0138 38.6657 39.0088C38.0505 39.0039 37.458 39.241 37.016 39.669L28.937 47.748L23.408 42.219C24.3694 37.872 25.8266 33.6497 27.751 29.635C27.8252 29.5149 27.8885 29.3884 27.94 29.257C29.858 25.3365 32.3982 21.7524 35.462 18.644C48.169 5.937 68.723 4.729 75.31 4.688C75.2665 9.13059 74.8412 13.5612 74.039 17.931H74.038Z" fill="black"/>
<path d="M55.224 34.004C57.3593 34.0035 59.4283 33.2626 61.0785 31.9075C62.7287 30.5525 63.858 28.6671 64.274 26.5728C64.6899 24.4784 64.3668 22.3046 63.3596 20.4218C62.3524 18.539 60.7235 17.0637 58.7505 16.2472C56.7775 15.4308 54.5824 15.3238 52.5393 15.9444C50.4962 16.5651 48.7315 17.8749 47.546 19.6508C46.3604 21.4268 45.8274 23.5588 46.0376 25.6837C46.2478 27.8086 47.1884 29.7949 48.699 31.304C49.5542 32.1629 50.5712 32.8437 51.6912 33.3072C52.8112 33.7706 54.0119 34.0075 55.224 34.004V34.004ZM52.013 21.565C52.756 20.8226 53.7333 20.3608 54.7786 20.2582C55.8239 20.1556 56.8724 20.4187 57.7455 21.0025C58.6186 21.5863 59.2623 22.4547 59.5669 23.4599C59.8715 24.465 59.8181 25.5447 59.416 26.515C59.0138 27.4852 58.2876 28.286 57.3612 28.7809C56.4348 29.2758 55.3655 29.4342 54.3354 29.2291C53.3054 29.024 52.3783 28.4681 51.7121 27.6561C51.0459 26.8441 50.6819 25.8263 50.682 24.776C50.6806 24.1793 50.7976 23.5882 51.0262 23.037C51.2549 22.4859 51.5906 21.9855 52.014 21.565H52.013Z" fill="black" fill-opacity="0.5"/>
</g>
<defs>
<clipPath id="clip0_444_2">
<rect width="80.002" height="80" fill="white"/>
</clipPath>
</defs>
</svg>
